<svg width="35" height="23" xmlns="http://www.w3.org/2000/svg" xmlns:xlink="http://www.w3.org/1999/xlink"  viewBox="805 670 35 23"><svg width="4" height="2" xmlns="http://www.w3.org/2000/svg" xmlns:xlink="http://www.w3.org/1999/xlink"  viewBox="0 0.185 4 1.629" fill="#fff" x="825" y="670"><svg xmlns="http://www.w3.org/2000/svg" xmlns:xlink="http://www.w3.org/1999/xlink" width="4" height="2" viewBox="0.584 1 2.455 1"><path paint-order="stroke fill markers" fill-rule="evenodd" d="M2.54 2H1.083a.5.5 0 1 1 0-1H2.54a.5.5 0 0 1 0 1z"/></svg></svg><svg width="35" height="17" xmlns="http://www.w3.org/2000/svg" xmlns:xlink="http://www.w3.org/1999/xlink"  viewBox="0 0.982 35 15.036" fill="#fff" x="805" y="670"><svg xmlns="http://www.w3.org/2000/svg" xmlns:xlink="http://www.w3.org/1999/xlink" width="35" height="17" viewBox="0 1 34.999 15.035"><path paint-order="stroke fill markers" fill-rule="evenodd" d="M32.719 16.035H2.279a.997.997 0 0 1-.957-.694 25.41 25.41 0 0 1-1.069-4.757 36.12 36.12 0 0 1 .019-8.696C.332 1.382.76 1 1.269 1H12.6a.5.5 0 1 1 0 1H1.269a34.935 34.935 0 0 0-.024 8.455c.195 1.555.54 3.088 1.029 4.577l30.445.003c.493-1.489.84-3.022 1.034-4.579a35.062 35.062 0 0 0-.021-8.454h-7.693a.5.5 0 1 1 0-1h7.69c.508 0 .936.38.997.885a36.13 36.13 0 0 1 .02 8.7 25.483 25.483 0 0 1-1.072 4.763.995.995 0 0 1-.955.685z"/></svg></svg><svg width="4" height="2" xmlns="http://www.w3.org/2000/svg" xmlns:xlink="http://www.w3.org/1999/xlink"  viewBox="0 0.195 4 1.61" fill="#fff" x="820" y="670"><svg xmlns="http://www.w3.org/2000/svg" xmlns:xlink="http://www.w3.org/1999/xlink" width="4" height="2" viewBox="0.599 1 2.485 1"><path paint-order="stroke fill markers" fill-rule="evenodd" d="M2.584 2H1.099a.5.5 0 1 1 0-1h1.485a.5.5 0 1 1 0 1z"/></svg></svg><svg width="27" height="5" xmlns="http://www.w3.org/2000/svg" xmlns:xlink="http://www.w3.org/1999/xlink"  viewBox="0 0.691 27 3.619" fill="#fff" x="809" y="682"><svg xmlns="http://www.w3.org/2000/svg" xmlns:xlink="http://www.w3.org/1999/xlink" width="27" height="5" viewBox="0.964 0.675 25.065 3.359"><path paint-order="stroke fill markers" fill-rule="evenodd" d="M24.942 4.034H2.056a.5.5 0 0 1-.405-.206 3.785 3.785 0 0 1-.65-2.707A.5.5 0 0 1 1.5.675h24a.5.5 0 0 1 .5.454 3.924 3.924 0 0 1-.65 2.694.501.501 0 0 1-.407.211zm-22.616-1h22.342c.23-.416.351-.884.35-1.36H1.973c-.006.477.116.947.353 1.36z"/></svg></svg><svg width="35" height="2" xmlns="http://www.w3.org/2000/svg" xmlns:xlink="http://www.w3.org/1999/xlink"  viewBox="0 0.493 35 1.014" fill="#fff" x="805" y="680"><svg xmlns="http://www.w3.org/2000/svg" xmlns:xlink="http://www.w3.org/1999/xlink" width="35" height="2" viewBox="0.249 0.018 34.5 1"><path paint-order="stroke fill markers" fill-rule="evenodd" d="M34.249 1.018H.749a.5.5 0 1 1 0-1h33.5a.5.5 0 1 1 0 1z"/></svg></svg><svg width="3" height="6" xmlns="http://www.w3.org/2000/svg" xmlns:xlink="http://www.w3.org/1999/xlink"  viewBox="0 0.49 3 5.02" fill="#fff" x="825" y="687"><svg xmlns="http://www.w3.org/2000/svg" xmlns:xlink="http://www.w3.org/1999/xlink" width="3" height="6" viewBox="0.004 0.844 2.62 4.385"><path paint-order="stroke fill markers" fill-rule="evenodd" d="M2.124 5.227a.5.5 0 0 1-.42-.23A21.223 21.223 0 0 1 .03 1.504a.5.5 0 0 1 .938-.345 20.567 20.567 0 0 0 1.577 3.3.5.5 0 0 1-.42.77v-.001z"/></svg></svg><svg width="4" height="6" xmlns="http://www.w3.org/2000/svg" xmlns:xlink="http://www.w3.org/1999/xlink"  viewBox="0.207 0 3.586 6" fill="#fff" x="829" y="687"><svg xmlns="http://www.w3.org/2000/svg" xmlns:xlink="http://www.w3.org/1999/xlink" width="4" height="6" viewBox="0.441 0.844 2.62 4.385"><path paint-order="stroke fill markers" fill-rule="evenodd" d="M2.562 5.227a.5.5 0 0 1-.42-.23A21.189 21.189 0 0 1 .466 1.504a.5.5 0 0 1 .938-.345 20.567 20.567 0 0 0 1.577 3.3.5.5 0 0 1-.42.77v-.001z"/></svg></svg><svg width="4" height="6" xmlns="http://www.w3.org/2000/svg" xmlns:xlink="http://www.w3.org/1999/xlink"  viewBox="0.212 0 3.576 6" fill="#fff" x="817" y="687"><svg xmlns="http://www.w3.org/2000/svg" xmlns:xlink="http://www.w3.org/1999/xlink" width="4" height="6" viewBox="0.374 0.813 2.631 4.414"><path paint-order="stroke fill markers" fill-rule="evenodd" d="M.873 5.227a.5.5 0 0 1-.42-.77 20.613 20.613 0 0 0 1.577-3.3.5.5 0 1 1 .938.344 21.15 21.15 0 0 1-1.674 3.495.5.5 0 0 1-.42.23z"/></svg></svg><svg width="4" height="6" xmlns="http://www.w3.org/2000/svg" xmlns:xlink="http://www.w3.org/1999/xlink"  viewBox="0.212 0 3.576 6" fill="#fff" x="812" y="687"><svg xmlns="http://www.w3.org/2000/svg" width="4" height="6" viewBox="0.937 0.813 2.631 4.414"><path paint-order="stroke fill markers" fill-rule="evenodd" d="M1.436 5.227a.5.5 0 0 1-.42-.77 20.61 20.61 0 0 0 1.576-3.3.5.5 0 1 1 .938.344 21.187 21.187 0 0 1-1.673 3.495.5.5 0 0 1-.421.23z"/></svg></svg></svg>