<?xml version="1.0" encoding="utf-8"?>
<!-- Generator: Adobe Illustrator 16.0.0, SVG Export Plug-In . SVG Version: 6.00 Build 0)  -->
<!DOCTYPE svg PUBLIC "-//W3C//DTD SVG 1.1//EN" "http://www.w3.org/Graphics/SVG/1.1/DTD/svg11.dtd">
<svg version="1.1" id="Layer_1" 
	 xmlns="http://www.w3.org/2000/svg" xmlns:xlink="http://www.w3.org/1999/xlink" x="0px" y="0px" width="11.287px" height="11px"
	 viewBox="390.715 300.5 11.287 11" enable-background="new 390.715 300.5 11.287 11" xml:space="preserve">
<path fill="#0E9749" d="M397.203,310.764l-0.559,0.559c-0.235,0.236-0.617,0.237-0.853,0.002c-0.001,0-0.001-0.001-0.002-0.002
	l-4.897-4.895c-0.235-0.234-0.236-0.615-0.002-0.852c0.001,0,0.002-0.002,0.002-0.002l4.897-4.896
	c0.234-0.236,0.616-0.237,0.852-0.002c0.001,0,0.001,0.001,0.003,0.002l0.559,0.56c0.236,0.237,0.234,0.62-0.002,0.856
	c-0.003,0.002-0.006,0.004-0.008,0.007l-3.035,2.893h7.24c0.333-0.001,0.604,0.269,0.604,0.603c0,0,0,0.001,0,0.002v0.807
	c0,0.334-0.27,0.604-0.605,0.604h-7.238l3.035,2.892c0.241,0.228,0.252,0.608,0.025,0.85
	C397.213,310.754,397.209,310.759,397.203,310.764z"/>
</svg>
