<svg width="12" height="11" xmlns="http://www.w3.org/2000/svg" xmlns:xlink="http://www.w3.org/1999/xlink"  viewBox="0.357 0 11.286 11" fill="#ffffff"><svg xmlns="http://www.w3.org/2000/svg" width="12" height="11" viewBox="0.467 0.5 10.625 10.356"><path paint-order="stroke fill markers" fill-rule="evenodd" d="M4.985 1.193l.527-.526a.567.567 0 0 1 .804 0l4.61 4.608a.567.567 0 0 1 0 .804l-4.61 4.61a.567.567 0 0 1-.804 0l-.527-.527a.57.57 0 0 1 .01-.813l2.857-2.723H1.036a.568.568 0 0 1-.569-.569v-.759c0-.315.254-.569.57-.569h6.815L4.995 2.007a.566.566 0 0 1-.01-.814z"/></svg></svg>