<svg width="14" height="14" xmlns="http://www.w3.org/2000/svg" xmlns:xlink="http://www.w3.org/1999/xlink"  viewBox="361 2108 14 14"><svg width="14" height="14" xmlns="http://www.w3.org/2000/svg" xmlns:xlink="http://www.w3.org/1999/xlink"  viewBox="361 2108 14 14" x="361" y="2108"><svg width="14" height="8" xmlns="http://www.w3.org/2000/svg" xmlns:xlink="http://www.w3.org/1999/xlink"  viewBox="0.09 0 13.82 8" fill="#9abda9" x="361" y="2108"><svg xmlns="http://www.w3.org/2000/svg" xmlns:xlink="http://www.w3.org/1999/xlink" width="14" height="8" viewBox="0.432 0.5 12.782 7.4"><path paint-order="stroke fill markers" fill-rule="evenodd" d="M.739 7.899l.113-.013 11.976.005.069.008h.033a.284.284 0 0 0 .239-.438l-.67-2.174V1.92c0-.783-.636-1.42-1.42-1.42H2.557c-.784 0-1.42.637-1.42 1.42v3.367L.444 7.532a.281.281 0 0 0 .05.261.29.29 0 0 0 .244.106zm1.25-2.854h.487l.265-1.059a.852.852 0 0 1 .828-.645h1.829c.47 0 .852.382.852.852v.852h1.136v-.852c0-.47.382-.852.852-.852h1.83c.39 0 .731.265.827.645l.264 1.06h.489a.284.284 0 0 1 0 .568h-.498a.854.854 0 0 1-.126.24.85.85 0 0 1-.672.328H8.238a.85.85 0 0 1-.8-.568h-1.24a.851.851 0 0 1-.8.568H3.284a.85.85 0 0 1-.672-.328.835.835 0 0 1-.126-.24h-.498a.284.284 0 1 1 0-.569z"/></svg></svg><svg width="14" height="6" xmlns="http://www.w3.org/2000/svg" xmlns:xlink="http://www.w3.org/1999/xlink"  viewBox="0 0.667 14 4.667" fill="#9abda9" x="361" y="2116"><svg xmlns="http://www.w3.org/2000/svg" width="14" height="6" viewBox="0 0.455 13.636 4.545"><path paint-order="stroke fill markers" fill-rule="evenodd" d="M12.784.455H.852A.853.853 0 0 0 0 1.307v3.409C0 4.873.127 5 .284 5H1.42a.284.284 0 0 0 .284-.284v-.852h10.227v.852c0 .157.128.284.285.284h1.136a.284.284 0 0 0 .284-.284v-3.41a.853.853 0 0 0-.852-.851z"/></svg></svg></svg></svg>