<svg width="60" height="59" xmlns="http://www.w3.org/2000/svg" xmlns:xlink="http://www.w3.org/1999/xlink"  viewBox="806 723 60 59"><svg width="60" height="38" xmlns="http://www.w3.org/2000/svg" xmlns:xlink="http://www.w3.org/1999/xlink"  viewBox="0 0.613 60 36.775" fill="#fff" x="806" y="744"><svg xmlns="http://www.w3.org/2000/svg" xmlns:xlink="http://www.w3.org/1999/xlink" width="60" height="38" viewBox="0.5 0.776 59.416 36.417"><path paint-order="stroke fill markers" fill-rule="evenodd" d="M56.083 31.313c2.213-.606 3.833-3.278 3.833-6.578 0-3.762-2.104-6.708-4.791-6.708-1.089 0-2.079.49-2.875 1.315v-5.28c2.212-.605 3.833-3.277 3.833-6.577 0-3.762-2.104-6.709-4.792-6.709-2.687 0-4.791 2.947-4.791 6.709 0 3.3 1.62 5.972 3.833 6.578v10.672c0 3.3 1.62 5.972 3.834 6.578v3.963h-9.584v-9.583h-28.75v9.583H6.25v-3.963c2.212-.606 3.833-3.278 3.833-6.578V14.063c2.213-.606 3.833-3.278 3.833-6.578 0-3.762-2.104-6.709-4.791-6.709-2.687 0-4.792 2.947-4.792 6.709 0 3.3 1.62 5.972 3.833 6.578v5.28c-.796-.827-1.786-1.316-2.875-1.316C2.604 18.027.5 20.973.5 24.735c0 3.3 1.62 5.972 3.833 6.578v3.963H.5v1.917h59.416v-1.917h-3.833v-3.963zm-18.208-2.745h3.833v3.833h-3.833v-3.833zm-19.167 0h3.833v3.833h-3.833v-3.833zm14.375 6.708v-5.75h-5.75v5.75h-1.917V27.61H35v7.666h-1.916z"/></svg></svg><svg width="26" height="26" xmlns="http://www.w3.org/2000/svg" xmlns:xlink="http://www.w3.org/1999/xlink"  fill="#fff" x="823" y="735"><svg xmlns="http://www.w3.org/2000/svg" xmlns:xlink="http://www.w3.org/1999/xlink" width="26" height="26" viewBox="0.75 0.193 24.917 24.917"><path paint-order="stroke fill markers" fill-rule="evenodd" d="M25.666.193H.75V25.11h24.916V.193zM7.458 22.235H3.625v-3.833h3.833v3.833zm0-7.667H3.625v-3.833h3.833v3.833zm0-7.667H3.625V3.068h3.833v3.833zm7.667 15.334H11.29v-3.833h3.834v3.833zm0-7.667H11.29v-3.833h3.834v3.833zm0-7.667H11.29V3.068h3.834v3.833zm7.667 15.334h-3.834v-3.833h3.834v3.833zm0-7.667h-3.834v-3.833h3.834v3.833zm0-7.667h-3.834V3.068h3.834v3.833z"/></svg></svg><svg width="5" height="6" xmlns="http://www.w3.org/2000/svg" xmlns:xlink="http://www.w3.org/1999/xlink"  viewBox="0.5 0 4 6" fill="#fff" x="842" y="762"><svg xmlns="http://www.w3.org/2000/svg" xmlns:xlink="http://www.w3.org/1999/xlink" width="5" height="6" viewBox="0.916 0.027 3.833 5.75"><path paint-order="stroke fill markers" fill-rule="evenodd" d="M.916.027H4.75v5.75H.916V.027z"/></svg></svg><svg width="4" height="6" xmlns="http://www.w3.org/2000/svg" xmlns:xlink="http://www.w3.org/1999/xlink"  fill="#fff" x="837" y="762"><svg xmlns="http://www.w3.org/2000/svg" xmlns:xlink="http://www.w3.org/1999/xlink" width="4" height="6" viewBox="0.166 0.027 3.833 5.75"><path paint-order="stroke fill markers" fill-rule="evenodd" d="M.166.027H4v5.75H.166V.027z"/></svg></svg><svg width="10" height="7" xmlns="http://www.w3.org/2000/svg" xmlns:xlink="http://www.w3.org/1999/xlink"  viewBox="0 0.5 10 6" fill="#fff" x="831" y="723"><svg xmlns="http://www.w3.org/2000/svg" xmlns:xlink="http://www.w3.org/1999/xlink" width="10" height="7" viewBox="0.417 0.693 9.583 5.75"><path paint-order="stroke fill markers" fill-rule="evenodd" d="M4.25 6.443h1.916V2.61H10V.693H.417V2.61H4.25v3.833z"/></svg></svg><svg width="8" height="3" xmlns="http://www.w3.org/2000/svg" xmlns:xlink="http://www.w3.org/1999/xlink"  viewBox="0 0.5 8 2" fill="#fff" x="839" y="727"><svg xmlns="http://www.w3.org/2000/svg" xmlns:xlink="http://www.w3.org/1999/xlink" width="8" height="3" viewBox="0.083 0.526 7.667 1.917"><path paint-order="stroke fill markers" fill-rule="evenodd" d="M.083.526H7.75v1.917H.083V.526z"/></svg></svg><svg width="26" height="3" xmlns="http://www.w3.org/2000/svg" xmlns:xlink="http://www.w3.org/1999/xlink"  viewBox="0 0.5 26 2" fill="#fff" x="823" y="731"><svg xmlns="http://www.w3.org/2000/svg" xmlns:xlink="http://www.w3.org/1999/xlink" width="26" height="3" viewBox="0.75 0.36 24.917 1.917"><path paint-order="stroke fill markers" fill-rule="evenodd" d="M.75.36h24.916v1.916H.75V.36z"/></svg></svg><svg width="9" height="3" xmlns="http://www.w3.org/2000/svg" xmlns:xlink="http://www.w3.org/1999/xlink"  viewBox="0 0.375 9 2.25" fill="#fff" x="825" y="727"><svg xmlns="http://www.w3.org/2000/svg" xmlns:xlink="http://www.w3.org/1999/xlink" width="9" height="3" viewBox="0.666 0.526 7.667 1.917"><path paint-order="stroke fill markers" fill-rule="evenodd" d="M.666.526h7.667v1.917H.666V.526z"/></svg></svg><svg width="5" height="6" xmlns="http://www.w3.org/2000/svg" xmlns:xlink="http://www.w3.org/1999/xlink"  viewBox="0.5 0 4 6" fill="#fff" x="831" y="762"><svg xmlns="http://www.w3.org/2000/svg" xmlns:xlink="http://www.w3.org/1999/xlink" width="5" height="6" viewBox="0.417 0.027 3.833 5.75"><path paint-order="stroke fill markers" fill-rule="evenodd" d="M.417.027H4.25v5.75H.417V.027z"/></svg></svg><svg width="5" height="6" xmlns="http://www.w3.org/2000/svg" xmlns:xlink="http://www.w3.org/1999/xlink"  viewBox="0.5 0 4 6" fill="#fff" x="825" y="762"><svg xmlns="http://www.w3.org/2000/svg" xmlns:xlink="http://www.w3.org/1999/xlink" width="5" height="6" viewBox="0.666 0.027 3.833 5.75"><path paint-order="stroke fill markers" fill-rule="evenodd" d="M.666.027H4.5v5.75H.666V.027z"/></svg></svg><svg width="5" height="6" xmlns="http://www.w3.org/2000/svg" xmlns:xlink="http://www.w3.org/1999/xlink"  viewBox="0.5 0 4 6" fill="#fff" x="848" y="762"><svg xmlns="http://www.w3.org/2000/svg" xmlns:xlink="http://www.w3.org/1999/xlink" width="5" height="6" viewBox="0.666 0.027 3.833 5.75"><path paint-order="stroke fill markers" fill-rule="evenodd" d="M.666 5.777h2.875a.96.96 0 0 0 .959-.959V.985A.96.96 0 0 0 3.54.027h-.958H.666v5.75z"/></svg></svg><svg width="5" height="6" xmlns="http://www.w3.org/2000/svg" xmlns:xlink="http://www.w3.org/1999/xlink"  viewBox="0.5 0 4 6" fill="#fff" x="819" y="762"><svg xmlns="http://www.w3.org/2000/svg" width="5" height="6" viewBox="0.916 0.027 3.833 5.75"><path paint-order="stroke fill markers" fill-rule="evenodd" d="M.916 4.818c0 .528.43.959.959.959H4.75V.027H2.833h-.958c-.53 0-.959.43-.959.958v3.833z"/></svg></svg></svg>