<svg width="9" height="8" xmlns="http://www.w3.org/2000/svg" xmlns:xlink="http://www.w3.org/1999/xlink"  viewBox="0 0.192 9 7.615" fill="#0ebb59"><svg xmlns="http://www.w3.org/2000/svg" width="9" height="8" viewBox="0.462 0.625 8.125 6.875"><path paint-order="stroke fill markers" fill-rule="evenodd" d="M7.806.625h-.781v.469c0 .086-.07.156-.156.156h-.313a.157.157 0 0 1-.156-.156v-.47H2.65v.47c0 .086-.07.156-.156.156H2.18a.156.156 0 0 1-.156-.156v-.47h-.782a.784.784 0 0 0-.78.782V6.72c0 .43.35.78.78.78h6.563c.43 0 .781-.35.781-.78V1.406a.784.784 0 0 0-.78-.781zm.156 5.86c0 .214-.175.39-.39.39H1.478a.392.392 0 0 1-.39-.39V2.968c0-.086.07-.157.155-.157h6.563c.086 0 .156.07.156.157v3.515z"/></svg></svg>