<svg xmlns="http://www.w3.org/2000/svg" xmlns:xlink="http://www.w3.org/1999/xlink" version="1.1" width="30" height="25" viewBox="0 0 256 256" xml:space="preserve">

<defs>
</defs>
<g style="stroke: none; stroke-width: 0; stroke-dasharray: none; stroke-linecap: butt; stroke-linejoin: miter; stroke-miterlimit: 10; fill: none; fill-rule: nonzero; opacity: 1;" transform="translate(1.4065934065934016 1.4065934065934016) scale(2.81 2.81)" >
	<path d="M 70.598 54.455 c -2.437 0 -5.436 -1.737 -8.667 -5.067 c -3.896 -4.014 -7.793 -9.933 -10.975 -16.667 c -1.582 -3.35 -2.9 -6.716 -3.917 -10.006 c -0.147 -0.476 0.078 -0.987 0.528 -1.2 l 15.666 -7.401 c 0.45 -0.213 0.988 -0.062 1.262 0.354 c 1.893 2.871 3.656 6.027 5.241 9.38 c 5.897 12.486 8.876 27.311 2.777 30.191 C 71.925 54.317 71.283 54.455 70.598 54.455 z M 49.211 22.95 c 0.95 2.937 2.144 5.932 3.554 8.916 c 3.091 6.542 6.855 12.27 10.601 16.129 c 3.396 3.5 6.494 5.089 8.294 4.235 c 3.586 -1.693 2.936 -13.416 -3.731 -27.528 c -1.412 -2.987 -2.968 -5.812 -4.63 -8.407 L 49.211 22.95 z" style="stroke: none; stroke-width: 1; stroke-dasharray: none; stroke-linecap: butt; stroke-linejoin: miter; stroke-miterlimit: 10; fill: #FFFFFF; fill-rule: nonzero; opacity: 1;" transform=" matrix(1 0 0 1 0 0) " stroke-linecap="round" />
	<path d="M 72.03 75.982 c -0.375 0 -0.734 -0.211 -0.905 -0.572 c -0.913 -1.934 -0.747 -4.212 0.469 -6.414 c 1.158 -2.096 3.147 -3.888 5.603 -5.048 c 2.455 -1.159 5.104 -1.557 7.456 -1.121 c 2.474 0.459 4.339 1.777 5.252 3.711 c 0.235 0.499 0.022 1.095 -0.478 1.331 l -16.971 8.018 C 72.318 75.952 72.173 75.982 72.03 75.982 z M 82.725 64.653 c -1.522 0 -3.136 0.377 -4.675 1.104 c -2.078 0.981 -3.749 2.476 -4.705 4.206 c -0.691 1.254 -0.938 2.511 -0.723 3.634 l 14.931 -7.055 c -0.73 -0.878 -1.857 -1.487 -3.265 -1.748 C 83.783 64.7 83.26 64.653 82.725 64.653 z" style="stroke: none; stroke-width: 1; stroke-dasharray: none; stroke-linecap: butt; stroke-linejoin: miter; stroke-miterlimit: 10; fill: #FFFFFF; fill-rule: nonzero; opacity: 1;" transform=" matrix(1 0 0 1 0 0) " stroke-linecap="round" />
	<path d="M 77.624 65.853 c -0.375 0 -0.734 -0.212 -0.905 -0.573 l -5.536 -11.718 c -0.235 -0.499 -0.022 -1.095 0.478 -1.331 c 0.501 -0.237 1.095 -0.021 1.331 0.478 l 5.536 11.718 c 0.235 0.499 0.022 1.095 -0.478 1.331 C 77.912 65.822 77.767 65.853 77.624 65.853 z" style="stroke: none; stroke-width: 1; stroke-dasharray: none; stroke-linecap: butt; stroke-linejoin: miter; stroke-miterlimit: 10; fill: #FFFFFF; fill-rule: nonzero; opacity: 1;" transform=" matrix(1 0 0 1 0 0) " stroke-linecap="round" />
	<path d="M 69.092 49.525 c -0.375 0 -0.734 -0.212 -0.905 -0.573 l -0.382 -0.81 c -0.235 -0.5 -0.021 -1.096 0.478 -1.331 c 0.5 -0.237 1.095 -0.021 1.331 0.478 l 0.382 0.81 c 0.235 0.5 0.021 1.096 -0.478 1.331 C 69.38 49.495 69.234 49.525 69.092 49.525 z" style="stroke: none; stroke-width: 1; stroke-dasharray: none; stroke-linecap: butt; stroke-linejoin: miter; stroke-miterlimit: 10; fill: #FFFFFF; fill-rule: nonzero; opacity: 1;" transform=" matrix(1 0 0 1 0 0) " stroke-linecap="round" />
	<path d="M 70.143 43.715 c -0.375 0 -0.734 -0.211 -0.905 -0.573 l -0.383 -0.81 c -0.235 -0.5 -0.022 -1.095 0.477 -1.332 c 0.504 -0.235 1.097 -0.022 1.332 0.477 l 0.383 0.81 c 0.235 0.5 0.022 1.095 -0.477 1.332 C 70.431 43.685 70.285 43.715 70.143 43.715 z" style="stroke: none; stroke-width: 1; stroke-dasharray: none; stroke-linecap: butt; stroke-linejoin: miter; stroke-miterlimit: 10; fill: #FFFFFF; fill-rule: nonzero; opacity: 1;" transform=" matrix(1 0 0 1 0 0) " stroke-linecap="round" />
	<path d="M 63.678 44.492 c -0.375 0 -0.734 -0.211 -0.905 -0.573 l -0.383 -0.81 c -0.235 -0.499 -0.022 -1.095 0.477 -1.331 c 0.503 -0.237 1.096 -0.022 1.332 0.477 l 0.383 0.81 c 0.235 0.499 0.022 1.095 -0.477 1.331 C 63.966 44.461 63.82 44.492 63.678 44.492 z" style="stroke: none; stroke-width: 1; stroke-dasharray: none; stroke-linecap: butt; stroke-linejoin: miter; stroke-miterlimit: 10; fill: #FFFFFF; fill-rule: nonzero; opacity: 1;" transform=" matrix(1 0 0 1 0 0) " stroke-linecap="round" />
	<path d="M 67.788 38.308 c -2.156 0 -4.213 -0.932 -6.133 -1.801 c -2.876 -1.303 -5.361 -2.425 -7.97 -0.767 c -0.468 0.297 -1.085 0.159 -1.381 -0.307 c -0.297 -0.466 -0.159 -1.084 0.307 -1.38 c 3.527 -2.243 6.896 -0.713 9.869 0.632 c 3.423 1.55 6.379 2.89 9.708 -0.542 c 0.386 -0.396 1.019 -0.405 1.414 -0.021 c 0.396 0.385 0.406 1.018 0.021 1.414 C 71.619 37.602 69.666 38.308 67.788 38.308 z" style="stroke: none; stroke-width: 1; stroke-dasharray: none; stroke-linecap: butt; stroke-linejoin: miter; stroke-miterlimit: 10; fill: #FFFFFF; fill-rule: nonzero; opacity: 1;" transform=" matrix(1 0 0 1 0 0) " stroke-linecap="round" />
	<path d="M 59.178 39.787 c -0.375 0 -0.734 -0.211 -0.905 -0.573 l -0.383 -0.81 c -0.235 -0.5 -0.022 -1.095 0.477 -1.332 c 0.504 -0.236 1.097 -0.022 1.332 0.477 l 0.383 0.81 c 0.235 0.5 0.022 1.095 -0.477 1.332 C 59.466 39.756 59.32 39.787 59.178 39.787 z" style="stroke: none; stroke-width: 1; stroke-dasharray: none; stroke-linecap: butt; stroke-linejoin: miter; stroke-miterlimit: 10; fill: #FFFFFF; fill-rule: nonzero; opacity: 1;" transform=" matrix(1 0 0 1 0 0) " stroke-linecap="round" />
	<path d="M 19.403 54.455 c -0.687 0 -1.327 -0.138 -1.917 -0.416 c -2.684 -1.268 -3.794 -5.221 -3.128 -11.129 c 0.627 -5.558 2.725 -12.327 5.906 -19.062 c 1.584 -3.353 3.347 -6.509 5.241 -9.38 c 0.274 -0.416 0.812 -0.566 1.262 -0.354 l 15.666 7.401 c 0.45 0.213 0.675 0.724 0.528 1.2 c -1.015 3.285 -2.333 6.651 -3.918 10.006 c -3.182 6.735 -7.08 12.654 -10.974 16.667 C 24.838 52.718 21.839 54.455 19.403 54.455 z M 26.702 16.295 c -1.663 2.596 -3.219 5.42 -4.629 8.407 c -3.09 6.541 -5.125 13.087 -5.728 18.432 c -0.547 4.848 0.199 8.248 1.995 9.097 c 1.797 0.852 4.896 -0.735 8.294 -4.235 c 3.746 -3.86 7.51 -9.588 10.601 -16.129 c 1.412 -2.988 2.605 -5.983 3.554 -8.916 L 26.702 16.295 z" style="stroke: none; stroke-width: 1; stroke-dasharray: none; stroke-linecap: butt; stroke-linejoin: miter; stroke-miterlimit: 10; fill: #FFFFFF; fill-rule: nonzero; opacity: 1;" transform=" matrix(1 0 0 1 0 0) " stroke-linecap="round" />
	<path d="M 17.971 75.982 c -0.146 0 -0.292 -0.032 -0.427 -0.096 L 0.573 67.869 c -0.5 -0.236 -0.713 -0.832 -0.477 -1.331 c 0.914 -1.934 2.779 -3.252 5.252 -3.711 c 2.354 -0.436 5.001 -0.038 7.457 1.121 c 2.455 1.16 4.444 2.952 5.602 5.048 c 1.216 2.202 1.382 4.48 0.469 6.413 c -0.113 0.24 -0.317 0.425 -0.567 0.515 C 18.199 75.963 18.084 75.982 17.971 75.982 z M 2.447 66.543 l 14.931 7.054 c 0.214 -1.123 -0.031 -2.38 -0.723 -3.634 c -0.956 -1.73 -2.626 -3.225 -4.705 -4.206 c -2.078 -0.981 -4.294 -1.323 -6.237 -0.963 C 4.305 65.055 3.178 65.664 2.447 66.543 z" style="stroke: none; stroke-width: 1; stroke-dasharray: none; stroke-linecap: butt; stroke-linejoin: miter; stroke-miterlimit: 10; fill: #FFFFFF; fill-rule: nonzero; opacity: 1;" transform=" matrix(1 0 0 1 0 0) " stroke-linecap="round" />
	<path d="M 12.376 65.853 c -0.144 0 -0.289 -0.03 -0.427 -0.096 c -0.5 -0.236 -0.713 -0.832 -0.477 -1.331 l 5.536 -11.718 c 0.236 -0.5 0.833 -0.713 1.332 -0.478 c 0.5 0.236 0.713 0.832 0.477 1.331 l -5.536 11.718 C 13.11 65.641 12.751 65.853 12.376 65.853 z" style="stroke: none; stroke-width: 1; stroke-dasharray: none; stroke-linecap: butt; stroke-linejoin: miter; stroke-miterlimit: 10; fill: #FFFFFF; fill-rule: nonzero; opacity: 1;" transform=" matrix(1 0 0 1 0 0) " stroke-linecap="round" />
	<path d="M 20.908 49.525 c -0.144 0 -0.289 -0.03 -0.427 -0.096 c -0.5 -0.236 -0.713 -0.832 -0.477 -1.332 l 0.383 -0.81 c 0.236 -0.5 0.835 -0.712 1.331 -0.477 c 0.5 0.236 0.713 0.832 0.477 1.332 l -0.383 0.81 C 21.642 49.314 21.283 49.525 20.908 49.525 z" style="stroke: none; stroke-width: 1; stroke-dasharray: none; stroke-linecap: butt; stroke-linejoin: miter; stroke-miterlimit: 10; fill: #FFFFFF; fill-rule: nonzero; opacity: 1;" transform=" matrix(1 0 0 1 0 0) " stroke-linecap="round" />
	<path d="M 19.858 43.715 c -0.143 0 -0.289 -0.031 -0.426 -0.096 c -0.5 -0.236 -0.713 -0.832 -0.478 -1.331 l 0.382 -0.81 c 0.235 -0.5 0.833 -0.712 1.331 -0.478 c 0.5 0.236 0.713 0.832 0.478 1.331 l -0.382 0.81 C 20.592 43.504 20.232 43.715 19.858 43.715 z" style="stroke: none; stroke-width: 1; stroke-dasharray: none; stroke-linecap: butt; stroke-linejoin: miter; stroke-miterlimit: 10; fill: #FFFFFF; fill-rule: nonzero; opacity: 1;" transform=" matrix(1 0 0 1 0 0) " stroke-linecap="round" />
	<path d="M 26.323 44.492 c -0.143 0 -0.289 -0.031 -0.427 -0.096 c -0.499 -0.236 -0.713 -0.832 -0.477 -1.332 l 0.382 -0.81 c 0.236 -0.499 0.832 -0.711 1.332 -0.477 c 0.499 0.236 0.713 0.832 0.477 1.332 l -0.382 0.81 C 27.057 44.281 26.697 44.492 26.323 44.492 z" style="stroke: none; stroke-width: 1; stroke-dasharray: none; stroke-linecap: butt; stroke-linejoin: miter; stroke-miterlimit: 10; fill: #FFFFFF; fill-rule: nonzero; opacity: 1;" transform=" matrix(1 0 0 1 0 0) " stroke-linecap="round" />
	<path d="M 22.211 38.308 c -1.877 0 -3.831 -0.706 -5.835 -2.772 c -0.385 -0.396 -0.375 -1.029 0.021 -1.414 c 0.396 -0.384 1.029 -0.375 1.414 0.021 c 3.329 3.431 6.285 2.092 9.708 0.542 c 2.975 -1.347 6.346 -2.874 9.869 -0.632 c 0.466 0.296 0.604 0.915 0.307 1.38 c -0.296 0.467 -0.916 0.604 -1.38 0.307 c -2.612 -1.661 -5.094 -0.535 -7.97 0.767 C 26.425 37.376 24.368 38.308 22.211 38.308 z" style="stroke: none; stroke-width: 1; stroke-dasharray: none; stroke-linecap: butt; stroke-linejoin: miter; stroke-miterlimit: 10; fill: #FFFFFF; fill-rule: nonzero; opacity: 1;" transform=" matrix(1 0 0 1 0 0) " stroke-linecap="round" />
	<path d="M 30.823 39.787 c -0.143 0 -0.289 -0.031 -0.426 -0.096 c -0.5 -0.236 -0.713 -0.832 -0.478 -1.331 l 0.382 -0.81 c 0.236 -0.5 0.834 -0.711 1.331 -0.478 c 0.5 0.236 0.713 0.832 0.478 1.331 l -0.382 0.81 C 31.558 39.575 31.198 39.787 30.823 39.787 z" style="stroke: none; stroke-width: 1; stroke-dasharray: none; stroke-linecap: butt; stroke-linejoin: miter; stroke-miterlimit: 10; fill: #FFFFFF; fill-rule: nonzero; opacity: 1;" transform=" matrix(1 0 0 1 0 0) " stroke-linecap="round" />
	<path d="M 45 75.982 c -0.168 0 -0.336 -0.042 -0.487 -0.127 c -2.946 -1.644 -7.533 -5.505 -9.439 -7.946 c -4.058 -5.193 -4.883 -11.358 -1.963 -14.658 c 1.404 -1.586 3.374 -2.501 5.548 -2.576 c 2.216 -0.069 4.448 0.744 6.341 2.33 c 1.894 -1.585 4.105 -2.4 6.341 -2.33 c 2.175 0.075 4.146 0.99 5.549 2.576 c 2.92 3.3 2.095 9.465 -1.963 14.658 c -1.907 2.441 -6.494 6.304 -9.439 7.946 C 45.336 75.94 45.168 75.982 45 75.982 z M 38.945 52.67 c -0.073 0 -0.145 0.001 -0.217 0.004 c -1.62 0.056 -3.083 0.732 -4.12 1.903 c -2.245 2.536 -1.368 7.738 2.041 12.102 c 1.645 2.105 5.625 5.494 8.351 7.146 c 2.725 -1.651 6.705 -5.04 8.351 -7.146 c 3.408 -4.363 4.286 -9.565 2.041 -12.102 l 0 0 c -1.036 -1.171 -2.499 -1.848 -4.12 -1.903 c -1.953 -0.079 -3.932 0.782 -5.57 2.394 c -0.39 0.383 -1.013 0.383 -1.402 0 C 42.721 53.516 40.828 52.67 38.945 52.67 z" style="stroke: none; stroke-width: 1; stroke-dasharray: none; stroke-linecap: butt; stroke-linejoin: miter; stroke-miterlimit: 10; fill: #FFFFFF; fill-rule: nonzero; opacity: 1;" transform=" matrix(1 0 0 1 0 0) " stroke-linecap="round" />
</g>
</svg>