<svg width="10" height="11" xmlns="http://www.w3.org/2000/svg" xmlns:xlink="http://www.w3.org/1999/xlink"  viewBox="606 245 10 11"><svg width="10" height="11" xmlns="http://www.w3.org/2000/svg" xmlns:xlink="http://www.w3.org/1999/xlink"  viewBox="606 245 10 11" x="606" y="245"><svg width="5" height="9" xmlns="http://www.w3.org/2000/svg" xmlns:xlink="http://www.w3.org/1999/xlink"  viewBox="608 247 5 9" x="608" y="247"><svg width="5" height="9" xmlns="http://www.w3.org/2000/svg" xmlns:xlink="http://www.w3.org/1999/xlink"  viewBox="608 247 5 9" x="608" y="247"><svg width="5" height="9" xmlns="http://www.w3.org/2000/svg" xmlns:xlink="http://www.w3.org/1999/xlink"  viewBox="0.269 0 4.462 9" fill="#0e9749" x="608" y="247"><svg xmlns="http://www.w3.org/2000/svg" xmlns:xlink="http://www.w3.org/1999/xlink" width="5" height="9" viewBox="0.96 0.631 3.901 7.868"><path paint-order="stroke fill markers" fill-rule="evenodd" d="M4.582.631h-3.35A.282.282 0 0 0 .96.912V8.5h3.9V.912a.287.287 0 0 0-.278-.28zM2.013 7.02a.18.18 0 0 1-.358 0v-.697a.18.18 0 0 1 .358 0v.697zm0-2.178a.18.18 0 0 1-.358 0v-.697a.18.18 0 0 1 .358 0v.697zm0-2.178a.18.18 0 1 1-.358 0v-.697a.18.18 0 0 1 .358 0v.697zM3.112 7.02a.18.18 0 1 1-.359 0v-.697a.18.18 0 0 1 .359 0v.697zm0-2.178a.18.18 0 1 1-.359 0v-.697a.18.18 0 0 1 .359 0v.697zm0-2.178a.18.18 0 1 1-.359 0v-.697a.18.18 0 0 1 .359 0v.697zM4.188 7.02a.18.18 0 0 1-.359 0v-.697a.18.18 0 0 1 .359 0v.697zm0-2.178a.18.18 0 0 1-.359 0v-.697a.18.18 0 0 1 .359 0v.697zm0-2.178a.18.18 0 1 1-.359 0v-.697a.18.18 0 0 1 .359 0v.697z"/></svg></svg></svg></svg><svg width="3" height="5" xmlns="http://www.w3.org/2000/svg" xmlns:xlink="http://www.w3.org/1999/xlink"  viewBox="606 251 3 5" x="606" y="251"><svg width="3" height="5" xmlns="http://www.w3.org/2000/svg" xmlns:xlink="http://www.w3.org/1999/xlink"  viewBox="606 251 3 5" x="606" y="251"><svg width="3" height="5" xmlns="http://www.w3.org/2000/svg" xmlns:xlink="http://www.w3.org/1999/xlink"  viewBox="0.357 0 2.287 5" fill="#0e9749" x="606" y="251"><svg xmlns="http://www.w3.org/2000/svg" xmlns:xlink="http://www.w3.org/1999/xlink" width="3" height="5" viewBox="0.673 0.285 1.928 4.214"><path paint-order="stroke fill markers" fill-rule="evenodd" d="M.945.285a.267.267 0 0 0-.272.263V4.5h1.928V.285H.945zm1.022 3.228h-.61a.18.18 0 1 1 0-.358h.61a.18.18 0 0 1 0 .358zm0-1.098h-.61a.18.18 0 0 1 0-.359h.61a.18.18 0 1 1 0 .36zm0-1.076h-.61a.18.18 0 1 1 0-.359h.61a.18.18 0 1 1 0 .359z"/></svg></svg></svg></svg><svg width="3" height="7" xmlns="http://www.w3.org/2000/svg" xmlns:xlink="http://www.w3.org/1999/xlink"  viewBox="613 249 3 7" x="613" y="249"><svg width="3" height="7" xmlns="http://www.w3.org/2000/svg" xmlns:xlink="http://www.w3.org/1999/xlink"  viewBox="613 249 3 7" x="613" y="249"><svg width="3" height="7" xmlns="http://www.w3.org/2000/svg" xmlns:xlink="http://www.w3.org/1999/xlink"  viewBox="0.272 0 2.455 7" fill="#0e9749" x="613" y="249"><svg xmlns="http://www.w3.org/2000/svg" xmlns:xlink="http://www.w3.org/1999/xlink" width="3" height="7" viewBox="0.219 0.492 2.107 6.008"><path paint-order="stroke fill markers" fill-rule="evenodd" d="M2.054 1.68h-.76c-.1 0-.178-.068-.178-.168V.763c0-.15-.122-.27-.27-.27H.218v2.42h1.153a.18.18 0 0 1 0 .359H.219v.717h1.153a.18.18 0 1 1 0 .359H.219v.74h1.153a.18.18 0 0 1 0 .358H.219V6.5h2.107V1.96a.282.282 0 0 0-.272-.28z"/></svg></svg></svg></svg><svg width="2" height="3" xmlns="http://www.w3.org/2000/svg" xmlns:xlink="http://www.w3.org/1999/xlink"  viewBox="610 245 2 3" x="610" y="245"><svg width="2" height="3" xmlns="http://www.w3.org/2000/svg" xmlns:xlink="http://www.w3.org/1999/xlink"  viewBox="610 245 2 3" x="610" y="245"><svg width="2" height="3" xmlns="http://www.w3.org/2000/svg" xmlns:xlink="http://www.w3.org/1999/xlink"  viewBox="0.725 0 0.551 3" fill="#0e9749" x="610" y="245"><svg xmlns="http://www.w3.org/2000/svg" width="2" height="3" viewBox="0.821 0.5 0.358 1.952"><path paint-order="stroke fill markers" fill-rule="evenodd" d="M1 .5C.9.5.82.58.82.68v1.772h.359V.679A.18.18 0 0 0 1 .5z"/></svg></svg></svg></svg></svg></svg>