<svg width="16" height="16" xmlns="http://www.w3.org/2000/svg" xmlns:xlink="http://www.w3.org/1999/xlink"  viewBox="806 2889 16 16"><svg width="16" height="16" xmlns="http://www.w3.org/2000/svg" xmlns:xlink="http://www.w3.org/1999/xlink"  fill="#3e5c9a" x="806" y="2889"><svg xmlns="http://www.w3.org/2000/svg" xmlns:xlink="http://www.w3.org/1999/xlink" width="16" height="16" viewBox="0.281 0.581 15 15"><path paint-order="stroke fill markers" fill-rule="evenodd" d="M1.781.58h12c.83 0 1.5.671 1.5 1.5v12c0 .83-.67 1.5-1.5 1.5h-12c-.83 0-1.5-.67-1.5-1.5v-12c0-.829.67-1.5 1.5-1.5z"/></svg></svg><svg width="5" height="10" xmlns="http://www.w3.org/2000/svg" xmlns:xlink="http://www.w3.org/1999/xlink"  viewBox="0.192 0 4.616 10" fill="#fff" x="811" y="2892"><svg xmlns="http://www.w3.org/2000/svg" width="5" height="10" viewBox="0.688 0.547 4.185 9.067"><path paint-order="stroke fill markers" fill-rule="evenodd" d="M1.638 9.614h1.826V5.042h1.273l.136-1.53H3.464V2.64c0-.361.072-.504.422-.504h.987V.547H3.61c-1.358 0-1.97.599-1.97 1.744v1.22h-.95v1.55h.95v4.553z"/></svg></svg></svg>