<svg width="43" height="43" xmlns="http://www.w3.org/2000/svg" xmlns:xlink="http://www.w3.org/1999/xlink"  viewBox="139 607 43 43"><svg width="43" height="18" xmlns="http://www.w3.org/2000/svg" xmlns:xlink="http://www.w3.org/1999/xlink"  viewBox="139 607 43 18" x="139" y="607"><svg width="18" height="18" xmlns="http://www.w3.org/2000/svg" xmlns:xlink="http://www.w3.org/1999/xlink"  fill="#0e9749" x="164" y="607"><svg xmlns="http://www.w3.org/2000/svg" xmlns:xlink="http://www.w3.org/1999/xlink" width="18" height="18" viewBox="0 0.5 17.5 17.5"><path paint-order="stroke fill markers" fill-rule="evenodd" d="M8.75 10.344A4.923 4.923 0 0 0 8.75.5a4.923 4.923 0 0 0-4.922 4.922 4.923 4.923 0 0 0 4.922 4.922zm4.375 1.093h-1.883a5.958 5.958 0 0 1-4.984 0H4.375A4.375 4.375 0 0 0 0 15.812v.547C0 17.265.735 18 1.64 18h14.22a1.64 1.64 0 0 0 1.64-1.64v-.548a4.374 4.374 0 0 0-4.375-4.375z"/></svg></svg><svg width="18" height="18" xmlns="http://www.w3.org/2000/svg" xmlns:xlink="http://www.w3.org/1999/xlink"  fill="#0e9749" x="139" y="607"><svg xmlns="http://www.w3.org/2000/svg" xmlns:xlink="http://www.w3.org/1999/xlink" width="18" height="18" viewBox="0 0.5 17.5 17.5"><path paint-order="stroke fill markers" fill-rule="evenodd" d="M8.75 10.344A4.923 4.923 0 0 0 8.75.5a4.923 4.923 0 0 0-4.922 4.922 4.923 4.923 0 0 0 4.922 4.922zm4.375 1.093h-1.883a5.958 5.958 0 0 1-4.984 0H4.375A4.375 4.375 0 0 0 0 15.812v.547C0 17.265.735 18 1.64 18h14.22c.905 0 1.64-.735 1.64-1.64v-.548a4.374 4.374 0 0 0-4.375-4.375z"/></svg></svg></svg><svg width="43" height="18" xmlns="http://www.w3.org/2000/svg" xmlns:xlink="http://www.w3.org/1999/xlink"  viewBox="139 632 43 18" x="139" y="632"><svg width="18" height="18" xmlns="http://www.w3.org/2000/svg" xmlns:xlink="http://www.w3.org/1999/xlink"  fill="#0e9749" x="164" y="632"><svg xmlns="http://www.w3.org/2000/svg" xmlns:xlink="http://www.w3.org/1999/xlink" width="18" height="18" viewBox="0 0.5 17.5 17.5"><path paint-order="stroke fill markers" fill-rule="evenodd" d="M8.75 10.344A4.923 4.923 0 0 0 8.75.5a4.923 4.923 0 0 0-4.922 4.922 4.923 4.923 0 0 0 4.922 4.922zm4.375 1.093h-1.883a5.958 5.958 0 0 1-4.984 0H4.375A4.375 4.375 0 0 0 0 15.812v.547C0 17.265.735 18 1.64 18h14.22a1.64 1.64 0 0 0 1.64-1.64v-.547a4.374 4.374 0 0 0-4.375-4.375z"/></svg></svg><svg width="18" height="18" xmlns="http://www.w3.org/2000/svg" xmlns:xlink="http://www.w3.org/1999/xlink"  fill="#0e9749" x="139" y="632"><svg xmlns="http://www.w3.org/2000/svg" width="18" height="18" viewBox="0 0.5 17.5 17.5"><path paint-order="stroke fill markers" fill-rule="evenodd" d="M8.75 10.344A4.923 4.923 0 0 0 8.75.5a4.923 4.923 0 0 0-4.922 4.922 4.923 4.923 0 0 0 4.922 4.922zm4.375 1.093h-1.883a5.958 5.958 0 0 1-4.984 0H4.375A4.375 4.375 0 0 0 0 15.812v.547C0 17.265.735 18 1.64 18h14.22c.905 0 1.64-.734 1.64-1.64v-.547a4.374 4.374 0 0 0-4.375-4.375z"/></svg></svg></svg></svg>