<svg width="33" height="33" xmlns="http://www.w3.org/2000/svg" xmlns:xlink="http://www.w3.org/1999/xlink"  viewBox="484 589 33 33"><svg width="33" height="33" xmlns="http://www.w3.org/2000/svg" xmlns:xlink="http://www.w3.org/1999/xlink"  viewBox="484 589 33 33" x="484" y="589"><svg width="9" height="10" xmlns="http://www.w3.org/2000/svg" xmlns:xlink="http://www.w3.org/1999/xlink"  viewBox="0 0.055 9 9.89" fill="#a4fcc4" x="484" y="612"><svg xmlns="http://www.w3.org/2000/svg" xmlns:xlink="http://www.w3.org/1999/xlink" width="9" height="10" viewBox="0.003 0.72 8.438 9.273"><path paint-order="stroke fill markers" fill-rule="evenodd" d="M4.148 9.986A4.142 4.142 0 0 1 1.1 8.893C-.39 7.403-.362 4.69 1.176 1.05a.542.542 0 1 1 .999.424C.84 4.63.73 6.996 1.866 8.13c1.026 1.028 3.101 1.028 5.843.014a.542.542 0 0 1 .38 1.015c-1.256.503-2.59.783-3.94.827z"/></svg></svg><svg width="9" height="10" xmlns="http://www.w3.org/2000/svg" xmlns:xlink="http://www.w3.org/1999/xlink"  viewBox="0 0.055 9 9.89" fill="#a4fcc4" x="508" y="589"><svg xmlns="http://www.w3.org/2000/svg" xmlns:xlink="http://www.w3.org/1999/xlink" width="9" height="10" viewBox="0.059 0.502 8.433 9.267"><path paint-order="stroke fill markers" fill-rule="evenodd" d="M6.824 9.769a.541.541 0 0 1-.5-.752C7.66 5.86 7.77 3.495 6.634 2.362 5.607 1.336 3.53 1.333.79 2.347A.542.542 0 0 1 .41 1.332C3.619.141 6.035.235 7.394 1.596c1.49 1.49 1.462 4.201-.076 7.843a.542.542 0 0 1-.494.33z"/></svg></svg><svg width="10" height="9" xmlns="http://www.w3.org/2000/svg" xmlns:xlink="http://www.w3.org/1999/xlink"  viewBox="0.057 0 9.885 9" fill="#a4fcc4" x="484" y="589"><svg xmlns="http://www.w3.org/2000/svg" xmlns:xlink="http://www.w3.org/1999/xlink" width="10" height="9" viewBox="0.006 0.5 9.263 8.434"><path paint-order="stroke fill markers" fill-rule="evenodd" d="M1.344 8.934a.541.541 0 0 1-.508-.353C-.354 5.372-.261 2.957 1.1 1.597 2.59.108 5.301.136 8.942 1.673a.541.541 0 0 1-.421.998C5.365 1.335 3 1.225 1.866 2.36.84 3.387.836 5.462 1.85 8.205a.541.541 0 0 1-.507.73z"/></svg></svg><svg width="10" height="10" xmlns="http://www.w3.org/2000/svg" xmlns:xlink="http://www.w3.org/1999/xlink"  viewBox="0.002 0 9.996 10" fill="#a4fcc4" x="507" y="612"><svg xmlns="http://www.w3.org/2000/svg" xmlns:xlink="http://www.w3.org/1999/xlink" width="10" height="10" viewBox="0.225 0.724 9.272 9.276"><path paint-order="stroke fill markers" fill-rule="evenodd" d="M5.351 9.993A12.722 12.722 0 0 1 .556 8.82a.542.542 0 0 1 .422-.999c3.157 1.335 5.522 1.445 6.655.308 1.134-1.137 1.03-3.5-.308-6.655a.541.541 0 0 1 .998-.422c1.54 3.641 1.566 6.353.076 7.842a4.134 4.134 0 0 1-3.048 1.1z"/></svg></svg></svg><svg width="28" height="28" xmlns="http://www.w3.org/2000/svg" xmlns:xlink="http://www.w3.org/1999/xlink"  viewBox="486 592 28 28" x="486" y="592"><svg width="8" height="6" xmlns="http://www.w3.org/2000/svg" xmlns:xlink="http://www.w3.org/1999/xlink"  viewBox="0.04 0 7.921 6" fill="#0e9749" x="492" y="600"><svg xmlns="http://www.w3.org/2000/svg" xmlns:xlink="http://www.w3.org/1999/xlink" width="8" height="6" viewBox="0.887 0.037 6.821 5.167"><path paint-order="stroke fill markers" fill-rule="evenodd" d="M.887 5.204h6.821V.982A23.793 23.793 0 0 1 1.466.037c-.356 1.7-.55 3.43-.579 5.167z"/></svg></svg><svg width="8" height="6" xmlns="http://www.w3.org/2000/svg" xmlns:xlink="http://www.w3.org/1999/xlink"  viewBox="0.04 0 7.921 6" fill="#0e9749" x="492" y="606"><svg xmlns="http://www.w3.org/2000/svg" xmlns:xlink="http://www.w3.org/1999/xlink" width="8" height="6" viewBox="0.887 0.287 6.821 5.167"><path paint-order="stroke fill markers" fill-rule="evenodd" d="M1.469 5.454a23.81 23.81 0 0 1 6.24-.945V.287H.886c.031 1.737.225 3.467.582 5.167z"/></svg></svg><svg width="7" height="9" xmlns="http://www.w3.org/2000/svg" xmlns:xlink="http://www.w3.org/1999/xlink"  viewBox="0 0.019 7 8.962" fill="#0e9749" x="493" y="611"><svg xmlns="http://www.w3.org/2000/svg" xmlns:xlink="http://www.w3.org/1999/xlink" width="7" height="9" viewBox="0.704 0.578 6.004 7.687"><path paint-order="stroke fill markers" fill-rule="evenodd" d="M3.306 7.648l.036.054c1.093.33 2.224.52 3.366.563V.578a22.503 22.503 0 0 0-6.004.925 20.947 20.947 0 0 0 2.602 6.145z"/></svg></svg><svg width="7" height="8" xmlns="http://www.w3.org/2000/svg" xmlns:xlink="http://www.w3.org/1999/xlink"  viewBox="0.375 0 6.251 8" fill="#0e9749" x="493" y="592"><svg xmlns="http://www.w3.org/2000/svg" xmlns:xlink="http://www.w3.org/1999/xlink" width="7" height="8" viewBox="0.699 0.226 6.009 7.691"><path paint-order="stroke fill markers" fill-rule="evenodd" d="M3.29.866A20.882 20.882 0 0 0 .7 6.991c1.95.579 3.973.89 6.008.925V.226c-1.14.044-2.27.233-3.361.562l-.056.078z"/></svg></svg><svg width="7" height="8" xmlns="http://www.w3.org/2000/svg" xmlns:xlink="http://www.w3.org/1999/xlink"  viewBox="0.289 0 6.421 8" fill="#0e9749" x="486" y="606"><svg xmlns="http://www.w3.org/2000/svg" xmlns:xlink="http://www.w3.org/1999/xlink" width="7" height="8" viewBox="0.73 0.287 5.718 7.124"><path paint-order="stroke fill markers" fill-rule="evenodd" d="M5.821.287H.73c.099 2.552.922 5.023 2.374 7.124l.282-.194.016-.007c.004-.003.006-.008.011-.01a16.814 16.814 0 0 1 3.035-1.408A28.767 28.767 0 0 1 5.82.287z"/></svg></svg><svg width="6" height="7" xmlns="http://www.w3.org/2000/svg" xmlns:xlink="http://www.w3.org/1999/xlink"  viewBox="0 0.337 6 6.326" fill="#0e9749" x="489" y="612"><svg xmlns="http://www.w3.org/2000/svg" xmlns:xlink="http://www.w3.org/1999/xlink" width="6" height="7" viewBox="0.755 0.85 4.98 5.251"><path paint-order="stroke fill markers" fill-rule="evenodd" d="M.982 2.121l-.227.158A13.617 13.617 0 0 0 5.735 6.1 22.725 22.725 0 0 1 3.683.851c-.938.337-1.842.762-2.7 1.27z"/></svg></svg><svg width="7" height="8" xmlns="http://www.w3.org/2000/svg" xmlns:xlink="http://www.w3.org/1999/xlink"  viewBox="0.287 0 6.425 8" fill="#0e9749" x="486" y="598"><svg xmlns="http://www.w3.org/2000/svg" xmlns:xlink="http://www.w3.org/1999/xlink" width="7" height="8" viewBox="0.73 0.085 5.718 7.119"><path paint-order="stroke fill markers" fill-rule="evenodd" d="M6.447 1.7A16.778 16.778 0 0 1 3.416.294L3.104.085A13.45 13.45 0 0 0 .73 7.205H5.82c.032-1.851.241-3.694.626-5.504z"/></svg></svg><svg width="6" height="6" xmlns="http://www.w3.org/2000/svg" xmlns:xlink="http://www.w3.org/1999/xlink"  viewBox="0.154 0 5.692 6" fill="#0e9749" x="489" y="593"><svg xmlns="http://www.w3.org/2000/svg" xmlns:xlink="http://www.w3.org/1999/xlink" width="6" height="6" viewBox="0.751 0.391 4.985 5.255"><path paint-order="stroke fill markers" fill-rule="evenodd" d="M3.684 5.645A22.685 22.685 0 0 1 5.737.391 13.606 13.606 0 0 0 .75 4.217l.243.162c.855.506 1.756.93 2.69 1.266z"/></svg></svg><svg width="6" height="9" xmlns="http://www.w3.org/2000/svg" xmlns:xlink="http://www.w3.org/1999/xlink"  viewBox="0 0.707 6 7.586" fill="#0e9749" x="508" y="597"><svg xmlns="http://www.w3.org/2000/svg" xmlns:xlink="http://www.w3.org/1999/xlink" width="6" height="9" viewBox="0.054 0.978 5.715 7.226"><path paint-order="stroke fill markers" fill-rule="evenodd" d="M.678 8.204h5.091A13.45 13.45 0 0 0 3.322.978a.534.534 0 0 1-.237.314A16.863 16.863 0 0 1 .054 2.699C.438 4.51.647 6.353.678 8.204z"/></svg></svg><svg width="7" height="8" xmlns="http://www.w3.org/2000/svg" xmlns:xlink="http://www.w3.org/1999/xlink"  viewBox="0.377 0 6.246 8" fill="#0e9749" x="500" y="592"><svg xmlns="http://www.w3.org/2000/svg" xmlns:xlink="http://www.w3.org/1999/xlink" width="7" height="8" viewBox="0.791 0.225 6.004 7.69"><path paint-order="stroke fill markers" fill-rule="evenodd" d="M4.193.843a.499.499 0 0 1-.02-.049A13.465 13.465 0 0 0 .792.225v7.69a22.521 22.521 0 0 0 6.004-.926A20.987 20.987 0 0 0 4.193.843z"/></svg></svg><svg width="6" height="7" xmlns="http://www.w3.org/2000/svg" xmlns:xlink="http://www.w3.org/1999/xlink"  viewBox="0 0.35 6 6.299" fill="#0e9749" x="505" y="612"><svg xmlns="http://www.w3.org/2000/svg" xmlns:xlink="http://www.w3.org/1999/xlink" width="6" height="7" viewBox="0.762 0.852 5.002 5.251"><path paint-order="stroke fill markers" fill-rule="evenodd" d="M2.813.852A22.632 22.632 0 0 1 .762 6.103 13.603 13.603 0 0 0 5.763 2.26l-.214-.114A15.94 15.94 0 0 0 2.813.852z"/></svg></svg><svg width="7" height="9" xmlns="http://www.w3.org/2000/svg" xmlns:xlink="http://www.w3.org/1999/xlink"  viewBox="0 0.02 7 8.961" fill="#0e9749" x="500" y="611"><svg xmlns="http://www.w3.org/2000/svg" xmlns:xlink="http://www.w3.org/1999/xlink" width="7" height="9" viewBox="0.791 0.578 6.005 7.687"><path paint-order="stroke fill markers" fill-rule="evenodd" d="M.79.578v7.687c1.141-.044 2.271-.233 3.364-.562l.05-.07a20.882 20.882 0 0 0 2.592-6.126A22.522 22.522 0 0 0 .79.578z"/></svg></svg><svg width="6" height="8" xmlns="http://www.w3.org/2000/svg" xmlns:xlink="http://www.w3.org/1999/xlink"  viewBox="0 0.28 6 7.44" fill="#0e9749" x="508" y="606"><svg xmlns="http://www.w3.org/2000/svg" xmlns:xlink="http://www.w3.org/1999/xlink" width="6" height="8" viewBox="0.052 0.287 5.718 7.09"><path paint-order="stroke fill markers" fill-rule="evenodd" d="M.052 5.791c1.054.368 2.07.84 3.031 1.408l.333.178A13.446 13.446 0 0 0 5.77.287H.678A28.863 28.863 0 0 1 .052 5.79z"/></svg></svg><svg width="6" height="6" xmlns="http://www.w3.org/2000/svg" xmlns:xlink="http://www.w3.org/1999/xlink"  viewBox="0.116 0 5.768 6" fill="#0e9749" x="505" y="593"><svg xmlns="http://www.w3.org/2000/svg" xmlns:xlink="http://www.w3.org/1999/xlink" width="6" height="6" viewBox="0.762 0.391 5.048 5.251"><path paint-order="stroke fill markers" fill-rule="evenodd" d="M5.526 4.365a.528.528 0 0 1 .284-.069A13.597 13.597 0 0 0 .762.391c.9 1.658 1.59 3.422 2.052 5.25.942-.338 1.85-.766 2.712-1.276z"/></svg></svg><svg width="8" height="6" xmlns="http://www.w3.org/2000/svg" xmlns:xlink="http://www.w3.org/1999/xlink"  viewBox="0.039 0 7.921 6" fill="#0e9749" x="500" y="606"><svg xmlns="http://www.w3.org/2000/svg" xmlns:xlink="http://www.w3.org/1999/xlink" width="8" height="6" viewBox="0.791 0.287 6.821 5.167"><path paint-order="stroke fill markers" fill-rule="evenodd" d="M7.612.287H.79v4.222c2.113.037 4.212.354 6.242.945.354-1.7.548-3.43.579-5.167z"/></svg></svg><svg width="8" height="6" xmlns="http://www.w3.org/2000/svg" xmlns:xlink="http://www.w3.org/1999/xlink"  viewBox="0.039 0 7.921 6" fill="#0e9749" x="500" y="600"><svg xmlns="http://www.w3.org/2000/svg" width="8" height="6" viewBox="0.791 0.038 6.821 5.167"><path paint-order="stroke fill markers" fill-rule="evenodd" d="M7.03.038C5.001.628 2.903.945.79.982v4.222h6.822A27.721 27.721 0 0 0 7.03.038z"/></svg></svg></svg></svg>