<svg width="10" height="11" xmlns="http://www.w3.org/2000/svg" xmlns:xlink="http://www.w3.org/1999/xlink"  viewBox="606 310 10 11"><svg width="10" height="11" xmlns="http://www.w3.org/2000/svg" xmlns:xlink="http://www.w3.org/1999/xlink"  viewBox="606 310 10 11" x="606" y="310"><svg width="10" height="11" xmlns="http://www.w3.org/2000/svg" xmlns:xlink="http://www.w3.org/1999/xlink"  viewBox="606 310 10 11" x="606" y="310"><svg width="10" height="6" xmlns="http://www.w3.org/2000/svg" xmlns:xlink="http://www.w3.org/1999/xlink"  viewBox="0 0.5 10 5" fill="#0e9749" x="606" y="315"><svg xmlns="http://www.w3.org/2000/svg" xmlns:xlink="http://www.w3.org/1999/xlink" width="10" height="6" viewBox="0 0.083 10 5"><path paint-order="stroke fill markers" fill-rule="evenodd" d="M8.958.083H1.041C.467.083 0 .551 0 1.125v3.75a.208.208 0 0 0 .416 0V4.25h9.167v.625a.208.208 0 0 0 .417 0v-3.75C10 .551 9.533.083 8.958.083zm.625 3.75H.416V3h9.167v.833z"/></svg></svg><svg width="10" height="5" xmlns="http://www.w3.org/2000/svg" xmlns:xlink="http://www.w3.org/1999/xlink"  viewBox="0 0.25 10 4.5" fill="#0e9749" x="606" y="310"><svg xmlns="http://www.w3.org/2000/svg" width="10" height="5" viewBox="0.833 0.917 8.334 3.75"><path paint-order="stroke fill markers" fill-rule="evenodd" d="M1.041 4.667h1.693a.208.208 0 0 1-.208-.209c0-.086.01-.171.03-.253l.208-.833a1.04 1.04 0 0 1 1.011-.79h2.45c.478 0 .893.325 1.01.79l.208.833c.02.081.03.166.03.253a.208.208 0 0 1-.208.208h1.693a.208.208 0 0 0 .209-.208v-2.5c0-.574-.468-1.041-1.042-1.041h-6.25C1.3.917.833 1.384.833 1.958v2.5c0 .115.094.209.208.209z"/></svg></svg></svg></svg></svg>