<svg width="20" height="21" xmlns="http://www.w3.org/2000/svg" xmlns:xlink="http://www.w3.org/1999/xlink"  viewBox="562 438 20 21"><svg width="20" height="21" xmlns="http://www.w3.org/2000/svg" xmlns:xlink="http://www.w3.org/1999/xlink"  viewBox="562 438 20 21" x="562" y="438"><svg width="20" height="21" xmlns="http://www.w3.org/2000/svg" xmlns:xlink="http://www.w3.org/1999/xlink"  viewBox="562 438 20 21" x="562" y="438"><svg width="20" height="21" xmlns="http://www.w3.org/2000/svg" xmlns:xlink="http://www.w3.org/1999/xlink"  viewBox="0 0.5 20 20" fill="#0e9749" x="562" y="438"><svg xmlns="http://www.w3.org/2000/svg" xmlns:xlink="http://www.w3.org/1999/xlink" width="20" height="21" viewBox="0 0.5 20 20"><path paint-order="stroke fill markers" fill-rule="evenodd" d="M10 .5C4.472.5 0 4.973 0 10.5s4.473 10 10 10 10-4.473 10-10c0-5.528-4.473-10-10-10zm0 18.437A8.433 8.433 0 0 1 1.562 10.5 8.433 8.433 0 0 1 10 2.062a8.432 8.432 0 0 1 8.437 8.438A8.433 8.433 0 0 1 10 18.937z"/></svg></svg></svg></svg><svg width="2" height="8" xmlns="http://www.w3.org/2000/svg" xmlns:xlink="http://www.w3.org/1999/xlink"  viewBox="571 446 2 8" x="571" y="446"><svg width="2" height="8" xmlns="http://www.w3.org/2000/svg" xmlns:xlink="http://www.w3.org/1999/xlink"  viewBox="571 446 2 8" x="571" y="446"><svg width="2" height="8" xmlns="http://www.w3.org/2000/svg" xmlns:xlink="http://www.w3.org/1999/xlink"  viewBox="0.052 0 1.896 8" fill="#0e9749" x="571" y="446"><svg xmlns="http://www.w3.org/2000/svg" xmlns:xlink="http://www.w3.org/1999/xlink" width="2" height="8" viewBox="0.218 0.872 1.563 6.593"><path paint-order="stroke fill markers" fill-rule="evenodd" d="M1 .872a.781.781 0 0 0-.782.781v5.031a.781.781 0 0 0 1.563 0v-5.03A.781.781 0 0 0 1 .871z"/></svg></svg></svg></svg><svg width="4" height="3" xmlns="http://www.w3.org/2000/svg" xmlns:xlink="http://www.w3.org/1999/xlink"  viewBox="570 443 4 3" x="570" y="443"><svg width="4" height="3" xmlns="http://www.w3.org/2000/svg" xmlns:xlink="http://www.w3.org/1999/xlink"  viewBox="570 443 4 3" x="570" y="443"><svg width="4" height="3" xmlns="http://www.w3.org/2000/svg" xmlns:xlink="http://www.w3.org/1999/xlink"  viewBox="0.5 0 3 3" fill="#0e9749" x="570" y="443"><svg xmlns="http://www.w3.org/2000/svg" width="4" height="3" viewBox="0.945 0.806 2.109 2.109"><path paint-order="stroke fill markers" fill-rule="evenodd" d="M2 2.916a1.054 1.054 0 1 1 0-2.11 1.054 1.054 0 1 1 0 2.11z"/></svg></svg></svg></svg></svg>