<svg width="16" height="16" xmlns="http://www.w3.org/2000/svg" xmlns:xlink="http://www.w3.org/1999/xlink"  viewBox="829 2889 16 16"><svg width="16" height="16" xmlns="http://www.w3.org/2000/svg" xmlns:xlink="http://www.w3.org/1999/xlink"  fill="#f5ec53" x="829" y="2889"><svg xmlns="http://www.w3.org/2000/svg" xmlns:xlink="http://www.w3.org/1999/xlink" width="16" height="16" viewBox="0 0.581 15 15"><path paint-order="stroke fill markers" fill-rule="evenodd" d="M1.5.58h12c.83 0 1.5.671 1.5 1.5v12c0 .83-.67 1.5-1.5 1.5h-12c-.83 0-1.5-.67-1.5-1.5v-12C0 1.252.67.58 1.5.58z"/></svg></svg><svg width="9" height="10" xmlns="http://www.w3.org/2000/svg" xmlns:xlink="http://www.w3.org/1999/xlink"  viewBox="832 2892 9 10" x="832" y="2892"><svg width="9" height="10" xmlns="http://www.w3.org/2000/svg" xmlns:xlink="http://www.w3.org/1999/xlink"  viewBox="0 0.5 9 9" fill="#fff" x="832" y="2892"><svg xmlns="http://www.w3.org/2000/svg" xmlns:xlink="http://www.w3.org/1999/xlink" width="9" height="10" viewBox="0.388 0.968 8.225 8.224"><path paint-order="stroke fill markers" fill-rule="evenodd" d="M4.5.968c-1.117 0-1.257.005-1.695.025-.438.02-.737.09-.999.191-.27.105-.5.246-.728.475a2.018 2.018 0 0 0-.475.728c-.101.261-.17.56-.19.998-.02.439-.025.579-.025 1.696 0 1.116.005 1.257.024 1.695.02.438.09.737.191.998.106.27.246.5.475.729.228.228.458.369.728.474.262.102.56.171.999.191.438.02.578.025 1.695.025s1.257-.005 1.695-.025c.438-.02.737-.09.999-.19.27-.106.5-.247.728-.475.228-.229.37-.458.474-.729.102-.261.172-.56.192-.998.02-.438.024-.579.024-1.695 0-1.117-.005-1.257-.024-1.696-.02-.438-.09-.737-.192-.998-.105-.27-.246-.5-.474-.728a2.02 2.02 0 0 0-.728-.475c-.262-.101-.56-.171-.999-.19C5.757.973 5.617.967 4.5.967zm0 .741c1.098 0 1.228.005 1.662.024.4.019.618.085.763.142.192.075.33.164.473.308.144.143.233.28.308.472.056.145.123.363.141.764.02.434.024.564.024 1.662 0 1.098-.004 1.228-.024 1.661-.018.401-.085.619-.141.764a1.273 1.273 0 0 1-.308.473c-.144.144-.28.233-.473.307-.145.057-.363.124-.763.142-.434.02-.564.024-1.662.024-1.098 0-1.228-.004-1.662-.024-.4-.018-.618-.085-.763-.142a1.282 1.282 0 0 1-.473-.307 1.277 1.277 0 0 1-.308-.473c-.056-.145-.123-.363-.141-.764-.02-.433-.025-.563-.025-1.661s.005-1.228.025-1.662c.018-.401.085-.619.141-.764.075-.192.164-.329.308-.472.144-.144.28-.233.473-.308.145-.057.362-.123.763-.142.434-.02.564-.024 1.662-.024z"/></svg></svg><svg width="5" height="6" xmlns="http://www.w3.org/2000/svg" xmlns:xlink="http://www.w3.org/1999/xlink"  viewBox="0 0.5 5 5" fill="#fff" x="834" y="2894"><svg xmlns="http://www.w3.org/2000/svg" xmlns:xlink="http://www.w3.org/1999/xlink" width="5" height="6" viewBox="0.388 0.969 4.224 4.224"><path paint-order="stroke fill markers" fill-rule="evenodd" d="M2.5.969a2.112 2.112 0 1 0 0 4.224A2.112 2.112 0 0 0 2.5.97zm0 3.482a1.37 1.37 0 1 1 0-2.74 1.37 1.37 0 0 1 0 2.74z"/></svg></svg><svg width="2" height="2" xmlns="http://www.w3.org/2000/svg" xmlns:xlink="http://www.w3.org/1999/xlink"  fill="#fff" x="838" y="2894"><svg xmlns="http://www.w3.org/2000/svg" width="2" height="2" viewBox="0.202 0.392 0.987 0.987"><path paint-order="stroke fill markers" fill-rule="evenodd" d="M1.189.885a.494.494 0 1 1-.988 0 .494.494 0 0 1 .988 0z"/></svg></svg></svg></svg>