<svg width="16" height="16" xmlns="http://www.w3.org/2000/svg" xmlns:xlink="http://www.w3.org/1999/xlink"  viewBox="828 2912 16 16"><svg width="16" height="16" xmlns="http://www.w3.org/2000/svg" xmlns:xlink="http://www.w3.org/1999/xlink"  fill="#117bb8" x="828" y="2912"><svg xmlns="http://www.w3.org/2000/svg" xmlns:xlink="http://www.w3.org/1999/xlink" width="16" height="16" viewBox="1 0.5 15 15"><path paint-order="stroke fill markers" fill-rule="evenodd" d="M2.5.5h12c.83 0 1.5.67 1.5 1.5v12c0 .83-.67 1.5-1.5 1.5h-12c-.83 0-1.5-.67-1.5-1.5V2C1 1.17 1.67.5 2.5.5z"/></svg></svg><svg width="9" height="9" xmlns="http://www.w3.org/2000/svg" xmlns:xlink="http://www.w3.org/1999/xlink"  viewBox="832 2915 9 9" x="832" y="2915"><svg width="3" height="9" xmlns="http://www.w3.org/2000/svg" xmlns:xlink="http://www.w3.org/1999/xlink"  viewBox="832 2915 3 9" x="832" y="2915"><svg width="2" height="6" xmlns="http://www.w3.org/2000/svg" xmlns:xlink="http://www.w3.org/1999/xlink"  viewBox="0.071 0 1.857 6" fill="#fff" x="833" y="2918"><svg xmlns="http://www.w3.org/2000/svg" xmlns:xlink="http://www.w3.org/1999/xlink" width="2" height="6" viewBox="0.099 0.328 1.552 5.014"><path paint-order="stroke fill markers" fill-rule="evenodd" d="M.099.328H1.65v5.015H.1V.328z"/></svg></svg><svg width="3" height="3" xmlns="http://www.w3.org/2000/svg" xmlns:xlink="http://www.w3.org/1999/xlink"  viewBox="0.012 0 2.976 3" fill="#fff" x="832" y="2915"><svg xmlns="http://www.w3.org/2000/svg" xmlns:xlink="http://www.w3.org/1999/xlink" width="3" height="3" viewBox="0.95 0.821 1.836 1.851"><path paint-order="stroke fill markers" fill-rule="evenodd" d="M1.867 2.672a.922.922 0 0 0 .918-.926c0-.511-.41-.925-.918-.925a.921.921 0 0 0-.917.925c0 .51.41.926.917.926z"/></svg></svg></svg><svg width="6" height="6" xmlns="http://www.w3.org/2000/svg" xmlns:xlink="http://www.w3.org/1999/xlink"  viewBox="0.199 0 5.602 6" fill="#fff" x="835" y="2918"><svg xmlns="http://www.w3.org/2000/svg" width="6" height="6" viewBox="0.644 0.175 4.824 5.168"><path paint-order="stroke fill markers" fill-rule="evenodd" d="M2.132 2.71c0-.705.324-1.125.946-1.125.57 0 .845.404.845 1.125v2.633h1.545V2.168C5.468.824 4.707.175 3.643.175c-1.063 0-1.51.829-1.51.829V.328H.642v5.015h1.49V2.71z"/></svg></svg></svg></svg>