 <svg width="73" height="26" xmlns="http://www.w3.org/2000/svg" xmlns:xlink="http://www.w3.org/1999/xlink"  viewBox="70 32 73 26"><svg width="73" height="15" xmlns="http://www.w3.org/2000/svg" xmlns:xlink="http://www.w3.org/1999/xlink"  viewBox="70 32 73 15" x="70" y="32"><svg width="73" height="15" xmlns="http://www.w3.org/2000/svg" xmlns:xlink="http://www.w3.org/1999/xlink"  viewBox="70 32 73 15" x="70" y="32"><svg width="25" height="15" xmlns="http://www.w3.org/2000/svg" xmlns:xlink="http://www.w3.org/1999/xlink"  viewBox="0.224 0 24.552 15" fill="#0f9649" x="70" y="32"><svg xmlns="http://www.w3.org/2000/svg" xmlns:xlink="http://www.w3.org/1999/xlink" width="25" height="15" viewBox="0.5 0 23.745 14.507"><path paint-order="stroke fill markers" fill-rule="evenodd" d="M7.647 14.507l2.667-3.67h4.917c.462 0 .864.015 1.205.043-.2-.256-.43-.58-.693-.97a54.423 54.423 0 0 0-.758-1.1l-2.56-3.775-6.698 9.472H.5L9.652 1.6A4.936 4.936 0 0 1 10.783.49c.455-.327 1.03-.49 1.728-.49.668 0 1.227.153 1.674.458.448.307.829.687 1.142 1.142l8.918 12.907H7.647z"/></svg></svg><svg width="25" height="15" xmlns="http://www.w3.org/2000/svg" xmlns:xlink="http://www.w3.org/1999/xlink"  viewBox="0.224 0 24.552 15" fill="#0f9649" x="94" y="32"><svg xmlns="http://www.w3.org/2000/svg" xmlns:xlink="http://www.w3.org/1999/xlink" width="25" height="15" viewBox="0.714 0 23.745 14.507"><path paint-order="stroke fill markers" fill-rule="evenodd" d="M7.86 14.507l2.667-3.67h4.918c.462 0 .864.015 1.205.043-.2-.256-.43-.58-.693-.97a56.388 56.388 0 0 0-.757-1.1l-2.56-3.775-6.7 9.472H.715L9.866 1.6a4.936 4.936 0 0 1 1.13-1.11C11.453.164 12.029 0 12.726 0c.668 0 1.226.153 1.674.458.448.307.829.687 1.142 1.142l8.917 12.907H7.861z"/></svg></svg><svg width="25" height="15" xmlns="http://www.w3.org/2000/svg" xmlns:xlink="http://www.w3.org/1999/xlink"  viewBox="0.224 0 24.552 15" fill="#0f9649" x="118" y="32"><svg xmlns="http://www.w3.org/2000/svg" xmlns:xlink="http://www.w3.org/1999/xlink" width="25" height="15" viewBox="0.928 0 23.745 14.507"><path paint-order="stroke fill markers" fill-rule="evenodd" d="M8.075 14.507l2.666-3.67h4.918c.462 0 .864.015 1.205.043-.199-.256-.43-.58-.693-.97a58.377 58.377 0 0 0-.757-1.1l-2.56-3.775-6.7 9.472H.929L10.08 1.6A4.936 4.936 0 0 1 11.21.49C11.666.164 12.243 0 12.94 0c.668 0 1.226.153 1.674.458.448.307.829.687 1.142 1.142l8.917 12.907H8.075z"/></svg></svg></svg></svg><svg width="73" height="8" xmlns="http://www.w3.org/2000/svg" xmlns:xlink="http://www.w3.org/1999/xlink"  viewBox="70 50 73 8" x="70" y="50"><svg width="7" height="7" xmlns="http://www.w3.org/2000/svg" xmlns:xlink="http://www.w3.org/1999/xlink"  viewBox="0.17 0 6.661 7" fill="#ffffff" x="70" y="50"><svg xmlns="http://www.w3.org/2000/svg" xmlns:xlink="http://www.w3.org/1999/xlink" width="7" height="7" viewBox="0.5 0.631 5.941 6.244"><path paint-order="stroke fill markers" fill-rule="evenodd" d="M6.44 5.162c0 1.08-.892 1.713-2.568 1.713H.5V.631h3.193c1.641 0 2.444.67 2.444 1.633 0 .597-.303 1.079-.838 1.355.704.25 1.142.785 1.142 1.543zM2.249 1.907v1.204h1.213c.59 0 .892-.205.892-.607 0-.392-.303-.597-.892-.597H2.248zm2.408 3.06c0-.429-.32-.634-.927-.634H2.248V5.6h1.48c.607 0 .928-.206.928-.634z"/></svg></svg><svg width="8" height="8" xmlns="http://www.w3.org/2000/svg" xmlns:xlink="http://www.w3.org/1999/xlink"  viewBox="0 0.257 8 7.485" fill="#ffffff" x="81" y="50"><svg xmlns="http://www.w3.org/2000/svg" xmlns:xlink="http://www.w3.org/1999/xlink" width="8" height="8" viewBox="0.497 0.506 6.94 6.494"><path paint-order="stroke fill markers" fill-rule="evenodd" d="M.497 3.753C.497 1.88 1.97.506 3.967.506c1.998 0 3.47 1.374 3.47 3.247C7.437 5.626 5.965 7 3.967 7 1.97 7 .497 5.626.497 3.753zm5.156 0c0-1.08-.74-1.784-1.686-1.784-.945 0-1.685.705-1.685 1.784 0 1.08.74 1.784 1.685 1.784.946 0 1.686-.705 1.686-1.784z"/></svg></svg><svg width="8" height="8" xmlns="http://www.w3.org/2000/svg" xmlns:xlink="http://www.w3.org/1999/xlink"  viewBox="0 0.257 8 7.486" fill="#ffffff" x="93" y="50"><svg xmlns="http://www.w3.org/2000/svg" xmlns:xlink="http://www.w3.org/1999/xlink" width="8" height="8" viewBox="0.503 0.506 6.94 6.494"><path paint-order="stroke fill markers" fill-rule="evenodd" d="M.503 3.753C.503 1.88 1.975.506 3.973.506c1.998 0 3.47 1.374 3.47 3.247C7.442 5.626 5.97 7 3.972 7 1.975 7 .503 5.626.503 3.753zm5.156 0c0-1.08-.74-1.784-1.686-1.784s-1.686.705-1.686 1.784c0 1.08.74 1.784 1.686 1.784.945 0 1.686-.705 1.686-1.784z"/></svg></svg><svg width="8" height="7" xmlns="http://www.w3.org/2000/svg" xmlns:xlink="http://www.w3.org/1999/xlink"  viewBox="0.5 0 7 7" fill="#ffffff" x="105" y="50"><svg xmlns="http://www.w3.org/2000/svg" xmlns:xlink="http://www.w3.org/1999/xlink" width="8" height="7" viewBox="0.83 0.631 6.244 6.244"><path paint-order="stroke fill markers" fill-rule="evenodd" d="M3.238 4.61l-.66.704v1.561H.83V.631h1.748v2.596L4.995.631H6.94L4.389 3.396l2.685 3.48H5.022L3.238 4.608z"/></svg></svg><svg width="3" height="7" xmlns="http://www.w3.org/2000/svg" xmlns:xlink="http://www.w3.org/1999/xlink"  viewBox="0.51 0 1.98 7" fill="#ffffff" x="116" y="50"><svg xmlns="http://www.w3.org/2000/svg" xmlns:xlink="http://www.w3.org/1999/xlink" width="3" height="7" viewBox="0.997 0.631 1.766 6.244"><path paint-order="stroke fill markers" fill-rule="evenodd" d="M.997.631h1.766v6.244H.997V.631z"/></svg></svg><svg width="7" height="7" xmlns="http://www.w3.org/2000/svg" xmlns:xlink="http://www.w3.org/1999/xlink"  viewBox="0.17 0 6.66 7" fill="#ffffff" x="124" y="50"><svg xmlns="http://www.w3.org/2000/svg" xmlns:xlink="http://www.w3.org/1999/xlink" width="7" height="7" viewBox="0.48 0.631 5.94 6.244"><path paint-order="stroke fill markers" fill-rule="evenodd" d="M6.42.631v6.244H4.968L2.21 3.548v3.327H.481V.631h1.453L4.69 3.958V.631h1.73z"/></svg></svg><svg width="8" height="8" xmlns="http://www.w3.org/2000/svg" xmlns:xlink="http://www.w3.org/1999/xlink"  viewBox="0.176 0 7.648 8" fill="#ffffff" x="135" y="50"><svg xmlns="http://www.w3.org/2000/svg" width="8" height="8" viewBox="0.808 0.506 6.208 6.494"><path paint-order="stroke fill markers" fill-rule="evenodd" d="M5.312 3.62h1.561v2.586C6.151 6.724 5.16 7 4.251 7 2.261 7 .808 5.653.808 3.753S2.262.506 4.286.506c1.169 0 2.115.402 2.73 1.142L5.892 2.665c-.428-.473-.919-.696-1.516-.696-1.07 0-1.784.705-1.784 1.784 0 1.053.713 1.784 1.766 1.784.33 0 .642-.062.954-.205V3.62z"/></svg></svg></svg></svg>
