<svg width="11" height="11" xmlns="http://www.w3.org/2000/svg" xmlns:xlink="http://www.w3.org/1999/xlink"  fill="#0e9749"><svg xmlns="http://www.w3.org/2000/svg" width="11" height="11" viewBox="0.5 0 10 10"><path paint-order="stroke fill markers" fill-rule="evenodd" d="M9.428 0H1.571C.98 0 .5.48.5 1.07v7.857C.5 9.52.98 10 1.57 10h7.857c.592 0 1.072-.48 1.072-1.072V1.071C10.5.48 10.02 0 9.428 0zM2.553 5.893a.268.268 0 0 1-.267-.268v-1.25c0-.147.12-.268.267-.268h5.893c.147 0 .268.12.268.268v1.25c0 .147-.12.268-.268.268H2.553z"/></svg></svg>