<svg width="34" height="31" xmlns="http://www.w3.org/2000/svg" xmlns:xlink="http://www.w3.org/1999/xlink"  viewBox="691 590 34 31"><svg width="21" height="21" xmlns="http://www.w3.org/2000/svg" xmlns:xlink="http://www.w3.org/1999/xlink"  viewBox="697 595 21 21" x="697" y="595"><svg width="21" height="21" xmlns="http://www.w3.org/2000/svg" xmlns:xlink="http://www.w3.org/1999/xlink"  fill="#a4fcc4" x="697" y="595"><svg xmlns="http://www.w3.org/2000/svg" xmlns:xlink="http://www.w3.org/1999/xlink" width="21" height="21" viewBox="0.654 0.655 20.191 20.191"><path paint-order="stroke fill markers" fill-rule="evenodd" d="M10.75 20.845A10.086 10.086 0 0 1 .654 10.75 10.086 10.086 0 0 1 10.75.655 10.086 10.086 0 0 1 20.845 10.75 10.086 10.086 0 0 1 10.75 20.845z"/></svg></svg></svg><svg width="34" height="31" xmlns="http://www.w3.org/2000/svg" xmlns:xlink="http://www.w3.org/1999/xlink"  viewBox="691 590 34 31" x="691" y="590"><svg width="32" height="15" xmlns="http://www.w3.org/2000/svg" xmlns:xlink="http://www.w3.org/1999/xlink"  viewBox="0 0.128 32 14.745" fill="#0e9749" x="691" y="606"><svg xmlns="http://www.w3.org/2000/svg" xmlns:xlink="http://www.w3.org/1999/xlink" width="32" height="15" viewBox="0.5 0.596 31.213 14.382"><path paint-order="stroke fill markers" fill-rule="evenodd" d="M31.198 1.905a.634.634 0 0 0-.744.503c-1.261 6.548-7.025 11.3-13.704 11.3-6.539 0-12.2-4.554-13.62-10.889l.166.166a.634.634 0 1 0 .898-.898L2.889.782a.634.634 0 0 0-.898 0L.686 2.087a.635.635 0 1 0 .897.898l.235-.235c1.417 7.092 7.68 12.228 14.932 12.228 7.286 0 13.574-5.185 14.951-12.33a.635.635 0 0 0-.503-.743z"/></svg></svg><svg width="33" height="15" xmlns="http://www.w3.org/2000/svg" xmlns:xlink="http://www.w3.org/1999/xlink"  viewBox="0.224 0 32.553 15" fill="#0e9749" x="692" y="590"><svg xmlns="http://www.w3.org/2000/svg" xmlns:xlink="http://www.w3.org/1999/xlink" width="33" height="15" viewBox="0.787 0.521 31.213 14.383"><path paint-order="stroke fill markers" fill-rule="evenodd" d="M31.814 12.515a.635.635 0 0 0-.898 0l-.235.235C29.265 5.658 23.001.521 15.75.521 8.463.521 2.175 5.707.799 12.851a.635.635 0 1 0 1.246.241C3.307 6.544 9.071 1.791 15.75 1.791c6.538 0 12.2 4.555 13.619 10.89l-.166-.166a.635.635 0 1 0-.897.898l1.305 1.305a.634.634 0 0 0 .898 0l1.305-1.305a.635.635 0 0 0 0-.898z"/></svg></svg><svg width="4" height="7" xmlns="http://www.w3.org/2000/svg" xmlns:xlink="http://www.w3.org/1999/xlink"  viewBox="0.137 0 3.726 7" fill="#0e9749" x="708" y="602"><svg xmlns="http://www.w3.org/2000/svg" xmlns:xlink="http://www.w3.org/1999/xlink" width="4" height="7" viewBox="0.019 0.907 3.026 5.686"><path paint-order="stroke fill markers" fill-rule="evenodd" d="M.42 6.548a.634.634 0 0 0 .824-.355L3 1.776a.635.635 0 0 0-1.18-.469L.065 5.724c-.13.325.029.694.355.824z"/></svg></svg><svg width="5" height="7" xmlns="http://www.w3.org/2000/svg" xmlns:xlink="http://www.w3.org/1999/xlink"  viewBox="0.223 0 4.554 7" fill="#0e9749" x="711" y="602"><svg xmlns="http://www.w3.org/2000/svg" xmlns:xlink="http://www.w3.org/1999/xlink" width="5" height="7" viewBox="0.372 0.907 3.699 5.686"><path paint-order="stroke fill markers" fill-rule="evenodd" d="M1.007 2.176h1.457L.914 5.703a.634.634 0 1 0 1.162.51l1.941-4.416a.634.634 0 0 0-.58-.89h-2.43a.635.635 0 1 0 0 1.27z"/></svg></svg><svg width="5" height="7" xmlns="http://www.w3.org/2000/svg" xmlns:xlink="http://www.w3.org/1999/xlink"  viewBox="0.012 0 4.977 7" fill="#0e9749" x="703" y="602"><svg xmlns="http://www.w3.org/2000/svg" xmlns:xlink="http://www.w3.org/1999/xlink" width="5" height="7" viewBox="0.793 0.906 4.043 5.687"><path paint-order="stroke fill markers" fill-rule="evenodd" d="M.881 4.978a.635.635 0 0 0 .547.311h1.57l-.006.664a.634.634 0 0 0 .63.64h.005c.348 0 .632-.28.635-.63l.005-.677a.635.635 0 0 0 .009-1.262c.006-1.033.008-2.073-.005-2.229-.034-.408-.284-.742-.636-.851-.351-.11-.72.022-.988.35-.251.309-1.325 2.239-1.775 3.054a.634.634 0 0 0 .01.63zM3.01 3.134l-.004.886h-.498c.176-.314.348-.617.502-.886z"/></svg></svg><svg width="5" height="7" xmlns="http://www.w3.org/2000/svg" xmlns:xlink="http://www.w3.org/1999/xlink"  viewBox="0.26 0 4.481 7" fill="#0e9749" x="700" y="602"><svg xmlns="http://www.w3.org/2000/svg" width="5" height="7" viewBox="0.428 0.864 3.696 5.774"><path paint-order="stroke fill markers" fill-rule="evenodd" d="M3.497 6.626a.634.634 0 0 0-.008-1.27h-.008c-.347.005-.712.008-1.042.01.228-.31.521-.715.892-1.244.292-.417.483-.814.568-1.18a1.33 1.33 0 0 0 .038-.313A1.766 1.766 0 0 0 .44 2.287a.635.635 0 1 0 1.246.245.496.496 0 0 1 .98.064l-.01.087c-.039.145-.133.38-.365.711A50.252 50.252 0 0 1 .953 5.23c-.287.375-.445.582-.34.926.063.202.221.363.425.43.085.029.152.051 1.02.051.34 0 .803-.003 1.44-.011z"/></svg></svg></svg></svg>