<svg width="7" height="7" xmlns="http://www.w3.org/2000/svg" xmlns:xlink="http://www.w3.org/1999/xlink"  fill="#0e9749"><svg xmlns="http://www.w3.org/2000/svg" width="7" height="7" viewBox="0.114 0.25 6 6"><path paint-order="stroke fill markers" fill-rule="evenodd" d="M5.781 4.417c-.416 0-.817-.067-1.183-.184-.117-.033-.25-.017-.333.084l-.734.733a5.012 5.012 0 0 1-2.2-2.2l.733-.733a.347.347 0 0 0 .084-.334 3.63 3.63 0 0 1-.2-1.2.334.334 0 0 0-.333-.333H.448a.335.335 0 0 0-.334.333A5.662 5.662 0 0 0 5.781 6.25c.184 0 .333-.15.333-.333V4.75a.334.334 0 0 0-.333-.333z"/></svg></svg>