<svg width="14" height="13" xmlns="http://www.w3.org/2000/svg" xmlns:xlink="http://www.w3.org/1999/xlink"  viewBox="0.432 0 13.135 13" fill="#9abda9"><svg xmlns="http://www.w3.org/2000/svg" width="14" height="13" viewBox="0.5 0.5 12.63 12.5"><path paint-order="stroke fill markers" fill-rule="evenodd" d="M2.132 10.005a.468.468 0 0 1 0 .663l-.41.411a.469.469 0 0 1-.332.138h-.003-.002a.468.468 0 0 1-.367-.178l-.381-.381a.469.469 0 0 1 .28-.797V1.845a.469.469 0 0 1-.28-.797l.412-.41A.466.466 0 0 1 1.382.5h.003c.148 0 .281.07.367.178l.38.38a.469.469 0 0 1-.278.797v8.016c.101.011.2.056.278.134zM13.13 12.11a.47.47 0 0 0-.138-.331l-.411-.412a.469.469 0 0 0-.797.28H3.768a.469.469 0 0 0-.797-.28l-.38.38a.468.468 0 0 0-.178.368v.005c0 .124.049.243.137.331l.412.412a.467.467 0 0 0 .796-.28h8.016a.467.467 0 0 0 .466.417c.12 0 .24-.046.33-.137l.382-.381a.468.468 0 0 0 .177-.367v-.003-.002zm-.47-7.658H9.364V.97a.469.469 0 0 0-.468-.47H3.302a.469.469 0 0 0-.468.47V10.2c0 .259.21.469.468.469h9.359c.259 0 .469-.21.469-.469V4.92a.469.469 0 0 0-.47-.468z"/></svg></svg>