<svg width="35" height="35" xmlns="http://www.w3.org/2000/svg" xmlns:xlink="http://www.w3.org/1999/xlink"  viewBox="855 461 35 35"><svg width="35" height="35" xmlns="http://www.w3.org/2000/svg" xmlns:xlink="http://www.w3.org/1999/xlink"  fill="#0e9749" opacity=".4" x="855" y="461"><svg xmlns="http://www.w3.org/2000/svg" xmlns:xlink="http://www.w3.org/1999/xlink" width="35" height="35"><path paint-order="stroke fill markers" fill-rule="evenodd" d="M17.5 35C7.822 35 0 27.177 0 17.5 0 7.822 7.822 0 17.5 0 27.177 0 35 7.822 35 17.5 35 27.177 27.177 35 17.5 35z"/></svg></svg><svg width="28" height="28" xmlns="http://www.w3.org/2000/svg" xmlns:xlink="http://www.w3.org/1999/xlink"  fill="#0e9749" opacity=".4" x="859" y="465"><svg xmlns="http://www.w3.org/2000/svg" xmlns:xlink="http://www.w3.org/1999/xlink" width="28" height="28" viewBox="0 0 27.5 27.5"><path paint-order="stroke fill markers" fill-rule="evenodd" d="M13.75 27.5C6.146 27.5 0 21.354 0 13.75S6.146 0 13.75 0 27.5 6.146 27.5 13.75 21.354 27.5 13.75 27.5z"/></svg></svg><svg width="21" height="21" xmlns="http://www.w3.org/2000/svg" xmlns:xlink="http://www.w3.org/1999/xlink"  fill="#0e9749" opacity=".4" x="862" y="468"><svg xmlns="http://www.w3.org/2000/svg" xmlns:xlink="http://www.w3.org/1999/xlink" width="21" height="21" viewBox="0.5 0.5 20 20"><path paint-order="stroke fill markers" fill-rule="evenodd" d="M10.5 20.5c-5.53 0-10-4.47-10-10s4.47-10 10-10 10 4.47 10 10-4.47 10-10 10z"/></svg></svg><svg width="8" height="8" xmlns="http://www.w3.org/2000/svg" xmlns:xlink="http://www.w3.org/1999/xlink"  viewBox="0.5 0 6.999 8" fill="#fff" x="869" y="475"><svg xmlns="http://www.w3.org/2000/svg" width="8" height="8" viewBox="0.5 0 6.562 7.5"><path paint-order="stroke fill markers" fill-rule="evenodd" d="M6.716 3.144L1.56.096C1.141-.15.5.09.5.701v6.095c0 .55.596.88 1.06.605l5.156-3.047a.702.702 0 0 0 0-1.21z"/></svg></svg></svg>