<svg width="11" height="10" xmlns="http://www.w3.org/2000/svg" xmlns:xlink="http://www.w3.org/1999/xlink"  viewBox="0.5 0 10 10" fill="#0e9749"><svg xmlns="http://www.w3.org/2000/svg" width="11" height="10" viewBox="0.575 0 10 10"><path paint-order="stroke fill markers" fill-rule="evenodd" d="M9.503 0H1.646C1.055 0 .575.48.575 1.07v7.857c0 .592.48 1.072 1.071 1.072h7.857c.592 0 1.072-.48 1.072-1.072V1.071C10.575.48 10.095 0 9.503 0zM8.79 5.625c0 .147-.12.268-.268.268H6.468v2.053c0 .148-.12.268-.268.268H4.95a.269.269 0 0 1-.268-.268V5.893H2.628a.269.269 0 0 1-.268-.268v-1.25c0-.147.121-.268.268-.268h2.054V2.053c0-.147.12-.267.268-.267H6.2c.147 0 .268.12.268.267v2.054H8.52c.148 0 .268.12.268.268v1.25z"/></svg></svg>