<svg width="7" height="11" xmlns="http://www.w3.org/2000/svg" xmlns:xlink="http://www.w3.org/1999/xlink"  viewBox="0.083 0 6.833 11" fill="#fff"><svg xmlns="http://www.w3.org/2000/svg" width="7" height="11" viewBox="0.5 0.5 6.212 10"><path paint-order="stroke fill markers" fill-rule="evenodd" d="M3.587.5c-1.062 0-1.85.325-2.35.825-.5.5-.675 1.125-.737 1.6l1.25.162c.05-.312.15-.625.387-.862.238-.238.613-.475 1.45-.475.825 0 1.275.2 1.525.425.25.225.35.5.35.825 0 1.037-.425 1.325-1.05 1.875s-1.45 1.35-1.45 2.812V8h1.25v-.313c0-1.037.388-1.325 1.013-1.875.625-.55 1.487-1.35 1.487-2.812 0-.6-.212-1.275-.737-1.763C5.437.75 4.637.5 3.587.5zm-.625 8.75v1.25h1.25V9.25h-1.25z"/></svg></svg>