<svg width="17" height="15" xmlns="http://www.w3.org/2000/svg" xmlns:xlink="http://www.w3.org/1999/xlink"  viewBox="382 841 17 15"><svg width="7" height="9" xmlns="http://www.w3.org/2000/svg" xmlns:xlink="http://www.w3.org/1999/xlink"  viewBox="0 0.41 7 8.18" fill="#0e9749" x="382" y="841"><svg xmlns="http://www.w3.org/2000/svg" xmlns:xlink="http://www.w3.org/1999/xlink" width="7" height="9" viewBox="0 0.301 6.96 8.134"><path paint-order="stroke fill markers" fill-rule="evenodd" d="M4.545 8.435L6.96 6.081.985.301a3.255 3.255 0 0 0 0 4.666l3.56 3.468z"/></svg></svg><svg width="17" height="15" xmlns="http://www.w3.org/2000/svg" xmlns:xlink="http://www.w3.org/1999/xlink"  viewBox="0.802 0 15.395 15" fill="#0e9749" x="382" y="841"><svg xmlns="http://www.w3.org/2000/svg" width="17" height="15" viewBox="0.815 0 15.395 15"><path paint-order="stroke fill markers" fill-rule="evenodd" d="M10.308 6.948c1.314.579 3.136.166 4.45-1.156 1.61-1.569 1.95-3.84.678-5.037-1.23-1.239-3.56-.908-5.17.66-1.357 1.322-1.78 3.098-1.187 4.336C7.215 7.61.815 13.844.815 13.844L2.002 15 7.85 9.302 13.698 15l1.187-1.156-5.849-5.698 1.272-1.198z"/></svg></svg></svg>