<svg width="14" height="12" xmlns="http://www.w3.org/2000/svg" xmlns:xlink="http://www.w3.org/1999/xlink"  viewBox="0 0.168 14 11.664" fill="#0e9749"><svg xmlns="http://www.w3.org/2000/svg" width="14" height="12" viewBox="0 0.5 13.503 11.249"><path paint-order="stroke fill markers" fill-rule="evenodd" d="M13.383 5.225L8.423.585C8.362.528 8.305.497 8.224.5c-.154.007-.351.116-.351.281V3.11a.15.15 0 0 1-.127.144C2.815 4.009.737 7.7.002 11.533c-.028.15.176.291.271.172 1.8-2.268 3.99-3.748 7.453-3.776.078 0 .148.091.148.169v2.285c0 .246.327.355.51.186l4.995-4.722a.388.388 0 0 0 .124-.295c-.004-.112-.032-.243-.12-.327z"/></svg></svg>