<svg width="19" height="26" xmlns="http://www.w3.org/2000/svg" xmlns:xlink="http://www.w3.org/1999/xlink"  viewBox="716 668 19 26"><svg width="19" height="26" xmlns="http://www.w3.org/2000/svg" xmlns:xlink="http://www.w3.org/1999/xlink"  viewBox="716 668 19 26" x="716" y="668"><svg width="1" height="3" xmlns="http://www.w3.org/2000/svg" xmlns:xlink="http://www.w3.org/1999/xlink"  viewBox="0 0.21 1 2.58" fill="#0e9749" x="726" y="668"><svg xmlns="http://www.w3.org/2000/svg" xmlns:xlink="http://www.w3.org/1999/xlink" width="1" height="3" viewBox="0.062 1 0.732 1.889"><path paint-order="stroke fill markers" fill-rule="evenodd" d="M.428 2.89a.366.366 0 0 0 .366-.367V1.366a.366.366 0 1 0-.732 0v1.157c0 .202.164.366.366.366z"/></svg></svg><svg width="19" height="16" xmlns="http://www.w3.org/2000/svg" xmlns:xlink="http://www.w3.org/1999/xlink"  viewBox="0 0.578 19 14.844" fill="#0e9749" x="716" y="668"><svg xmlns="http://www.w3.org/2000/svg" xmlns:xlink="http://www.w3.org/1999/xlink" width="19" height="16" viewBox="0 1 18.49 14.445"><path paint-order="stroke fill markers" fill-rule="evenodd" d="M17.728 13.134h-.389L14.376 8.41a2.326 2.326 0 0 0-1.981-1.097h-.318v-.719c0-.722-.57-1.314-1.283-1.35V4.232a.366.366 0 1 0-.732 0v1.01H8.427V1.366a.366.366 0 0 0-.732 0v3.878a1.354 1.354 0 0 0-1.283 1.35v.72h-.318c-.81 0-1.55.41-1.982 1.096l-.254.407a.366.366 0 1 0 .62.389l.255-.407a1.598 1.598 0 0 1 1.36-.753h6.302c.556 0 1.065.281 1.36.753l2.72 4.335h-.715a.366.366 0 1 0 0 .732h1.968c.016 0 .028.013.028.028v.79a.029.029 0 0 1-.028.028H.761a.029.029 0 0 1-.029-.028v-.79c0-.015.013-.028.029-.028h13.29a.366.366 0 1 0 0-.732H2.013l1.556-2.48a.366.366 0 1 0-.62-.39l-1.8 2.87H.76c-.42 0-.76.34-.76.76v.79c0 .42.34.76.76.76h16.968c.42 0 .761-.34.761-.76v-.79c0-.42-.341-.76-.76-.76zM7.145 6.594a.62.62 0 0 1 .62-.62h2.96a.62.62 0 0 1 .62.62v.72h-4.2v-.72z"/></svg></svg><svg width="2" height="2" xmlns="http://www.w3.org/2000/svg" xmlns:xlink="http://www.w3.org/1999/xlink"  viewBox="0.318 0 1.364 2" fill="#0e9749" x="726" y="692"><svg xmlns="http://www.w3.org/2000/svg" xmlns:xlink="http://www.w3.org/1999/xlink" width="2" height="2" viewBox="0.851 0.926 0.733 1.074"><path paint-order="stroke fill markers" fill-rule="evenodd" d="M1.217.926a.366.366 0 0 0-.366.366v.342a.366.366 0 0 0 .733 0v-.342a.366.366 0 0 0-.367-.366z"/></svg></svg><svg width="2" height="2" xmlns="http://www.w3.org/2000/svg" xmlns:xlink="http://www.w3.org/1999/xlink"  viewBox="0.467 0 1.065 2" fill="#0e9749" x="726" y="687"><svg xmlns="http://www.w3.org/2000/svg" xmlns:xlink="http://www.w3.org/1999/xlink" width="2" height="2" viewBox="0.851 0.231 0.733 1.375"><path paint-order="stroke fill markers" fill-rule="evenodd" d="M1.217.231a.366.366 0 0 0-.366.366v.643a.366.366 0 0 0 .733 0V.597a.366.366 0 0 0-.367-.366z"/></svg></svg><svg width="2" height="2" xmlns="http://www.w3.org/2000/svg" xmlns:xlink="http://www.w3.org/1999/xlink"  viewBox="0.467 0 1.065 2" fill="#0e9749" x="726" y="690"><svg xmlns="http://www.w3.org/2000/svg" xmlns:xlink="http://www.w3.org/1999/xlink" width="2" height="2" viewBox="0.851 0.079 0.733 1.375"><path paint-order="stroke fill markers" fill-rule="evenodd" d="M1.217.079a.366.366 0 0 0-.366.366v.643a.366.366 0 0 0 .733 0V.445a.366.366 0 0 0-.367-.366z"/></svg></svg><svg width="2" height="2" xmlns="http://www.w3.org/2000/svg" xmlns:xlink="http://www.w3.org/1999/xlink"  viewBox="0.318 0 1.364 2" fill="#0e9749" x="726" y="684"><svg xmlns="http://www.w3.org/2000/svg" xmlns:xlink="http://www.w3.org/1999/xlink" width="2" height="2" viewBox="0.851 0.685 0.733 1.074"><path paint-order="stroke fill markers" fill-rule="evenodd" d="M1.217.685a.366.366 0 0 0-.366.366v.342a.366.366 0 0 0 .733 0v-.342a.366.366 0 0 0-.367-.366z"/></svg></svg><svg width="2" height="2" xmlns="http://www.w3.org/2000/svg" xmlns:xlink="http://www.w3.org/1999/xlink"  viewBox="0.318 0 1.364 2" fill="#0e9749" x="728" y="684"><svg xmlns="http://www.w3.org/2000/svg" xmlns:xlink="http://www.w3.org/1999/xlink" width="2" height="2" viewBox="0.824 0.685 0.733 1.074"><path paint-order="stroke fill markers" fill-rule="evenodd" d="M1.19.685a.366.366 0 0 0-.366.366v.342a.366.366 0 0 0 .733 0v-.342A.366.366 0 0 0 1.19.685z"/></svg></svg><svg width="2" height="2" xmlns="http://www.w3.org/2000/svg" xmlns:xlink="http://www.w3.org/1999/xlink"  viewBox="0.47 0 1.06 2" fill="#0e9749" x="728" y="686"><svg xmlns="http://www.w3.org/2000/svg" xmlns:xlink="http://www.w3.org/1999/xlink" width="2" height="2" viewBox="0.824 0.514 0.733 1.383"><path paint-order="stroke fill markers" fill-rule="evenodd" d="M1.19.514A.366.366 0 0 0 .824.88v.65a.366.366 0 0 0 .733 0V.88A.366.366 0 0 0 1.19.514z"/></svg></svg><svg width="2" height="3" xmlns="http://www.w3.org/2000/svg" xmlns:xlink="http://www.w3.org/1999/xlink"  viewBox="0.205 0 1.589 3" fill="#0e9749" x="728" y="690"><svg xmlns="http://www.w3.org/2000/svg" xmlns:xlink="http://www.w3.org/1999/xlink" width="2" height="3" viewBox="0.824 0.788 0.733 1.383"><path paint-order="stroke fill markers" fill-rule="evenodd" d="M1.19.788a.366.366 0 0 0-.366.367v.65a.366.366 0 0 0 .733 0v-.65A.366.366 0 0 0 1.19.788z"/></svg></svg><svg width="2" height="3" xmlns="http://www.w3.org/2000/svg" xmlns:xlink="http://www.w3.org/1999/xlink"  viewBox="0.205 0 1.59 3" fill="#0e9749" x="728" y="688"><svg xmlns="http://www.w3.org/2000/svg" xmlns:xlink="http://www.w3.org/1999/xlink" width="2" height="3" viewBox="0.824 0.651 0.733 1.383"><path paint-order="stroke fill markers" fill-rule="evenodd" d="M1.19.651a.366.366 0 0 0-.366.366v.65a.366.366 0 0 0 .733 0v-.65A.366.366 0 0 0 1.19.651z"/></svg></svg><svg width="2" height="2" xmlns="http://www.w3.org/2000/svg" xmlns:xlink="http://www.w3.org/1999/xlink"  viewBox="0.318 0 1.364 2" fill="#0e9749" x="728" y="692"><svg xmlns="http://www.w3.org/2000/svg" xmlns:xlink="http://www.w3.org/1999/xlink" width="2" height="2" viewBox="0.824 0.926 0.733 1.074"><path paint-order="stroke fill markers" fill-rule="evenodd" d="M1.19.926a.366.366 0 0 0-.366.366v.342a.366.366 0 0 0 .733 0v-.342A.366.366 0 0 0 1.19.926z"/></svg></svg><svg width="2" height="2" xmlns="http://www.w3.org/2000/svg" xmlns:xlink="http://www.w3.org/1999/xlink"  viewBox="0.318 0 1.364 2" fill="#0e9749" x="724" y="684"><svg xmlns="http://www.w3.org/2000/svg" xmlns:xlink="http://www.w3.org/1999/xlink" width="2" height="2" viewBox="0.878 0.685 0.733 1.074"><path paint-order="stroke fill markers" fill-rule="evenodd" d="M1.244.685a.366.366 0 0 0-.366.366v.342a.366.366 0 0 0 .733 0v-.342a.366.366 0 0 0-.367-.366z"/></svg></svg><svg width="2" height="3" xmlns="http://www.w3.org/2000/svg" xmlns:xlink="http://www.w3.org/1999/xlink"  viewBox="0.205 0 1.589 3" fill="#0e9749" x="724" y="690"><svg xmlns="http://www.w3.org/2000/svg" xmlns:xlink="http://www.w3.org/1999/xlink" width="2" height="3" viewBox="0.878 0.788 0.733 1.383"><path paint-order="stroke fill markers" fill-rule="evenodd" d="M1.244.788a.366.366 0 0 0-.366.367v.65a.366.366 0 0 0 .733 0v-.65a.366.366 0 0 0-.367-.367z"/></svg></svg><svg width="2" height="2" xmlns="http://www.w3.org/2000/svg" xmlns:xlink="http://www.w3.org/1999/xlink"  viewBox="0.47 0 1.06 2" fill="#0e9749" x="724" y="686"><svg xmlns="http://www.w3.org/2000/svg" xmlns:xlink="http://www.w3.org/1999/xlink" width="2" height="2" viewBox="0.878 0.514 0.733 1.383"><path paint-order="stroke fill markers" fill-rule="evenodd" d="M1.244.514A.366.366 0 0 0 .878.88v.65a.366.366 0 0 0 .733 0V.88a.366.366 0 0 0-.367-.366z"/></svg></svg><svg width="2" height="3" xmlns="http://www.w3.org/2000/svg" xmlns:xlink="http://www.w3.org/1999/xlink"  viewBox="0.205 0 1.59 3" fill="#0e9749" x="724" y="688"><svg xmlns="http://www.w3.org/2000/svg" xmlns:xlink="http://www.w3.org/1999/xlink" width="2" height="3" viewBox="0.878 0.651 0.733 1.383"><path paint-order="stroke fill markers" fill-rule="evenodd" d="M1.244.651a.366.366 0 0 0-.366.366v.65a.366.366 0 0 0 .733 0v-.65a.366.366 0 0 0-.367-.366z"/></svg></svg><svg width="2" height="2" xmlns="http://www.w3.org/2000/svg" xmlns:xlink="http://www.w3.org/1999/xlink"  viewBox="0.318 0 1.364 2" fill="#0e9749" x="724" y="692"><svg xmlns="http://www.w3.org/2000/svg" xmlns:xlink="http://www.w3.org/1999/xlink" width="2" height="2" viewBox="0.878 0.926 0.733 1.074"><path paint-order="stroke fill markers" fill-rule="evenodd" d="M1.244.926a.366.366 0 0 0-.366.366v.342a.366.366 0 0 0 .733 0v-.342a.366.366 0 0 0-.367-.366z"/></svg></svg><svg width="2" height="2" xmlns="http://www.w3.org/2000/svg" xmlns:xlink="http://www.w3.org/1999/xlink"  viewBox="0.318 0 1.364 2" fill="#0e9749" x="722" y="692"><svg xmlns="http://www.w3.org/2000/svg" xmlns:xlink="http://www.w3.org/1999/xlink" width="2" height="2" viewBox="0.905 0.926 0.733 1.074"><path paint-order="stroke fill markers" fill-rule="evenodd" d="M1.271.926a.366.366 0 0 0-.366.366v.342a.366.366 0 0 0 .733 0v-.342A.366.366 0 0 0 1.27.926z"/></svg></svg><svg width="2" height="2" xmlns="http://www.w3.org/2000/svg" xmlns:xlink="http://www.w3.org/1999/xlink"  viewBox="0.467 0 1.065 2" fill="#0e9749" x="722" y="690"><svg xmlns="http://www.w3.org/2000/svg" xmlns:xlink="http://www.w3.org/1999/xlink" width="2" height="2" viewBox="0.905 0.079 0.733 1.375"><path paint-order="stroke fill markers" fill-rule="evenodd" d="M1.271.079a.366.366 0 0 0-.366.366v.643a.366.366 0 0 0 .733 0V.445A.366.366 0 0 0 1.27.079z"/></svg></svg><svg width="2" height="2" xmlns="http://www.w3.org/2000/svg" xmlns:xlink="http://www.w3.org/1999/xlink"  viewBox="0.467 0 1.065 2" fill="#0e9749" x="722" y="687"><svg xmlns="http://www.w3.org/2000/svg" xmlns:xlink="http://www.w3.org/1999/xlink" width="2" height="2" viewBox="0.905 0.231 0.733 1.375"><path paint-order="stroke fill markers" fill-rule="evenodd" d="M1.271.231a.366.366 0 0 0-.366.366v.643a.366.366 0 0 0 .733 0V.597A.366.366 0 0 0 1.27.231z"/></svg></svg><svg width="2" height="2" xmlns="http://www.w3.org/2000/svg" xmlns:xlink="http://www.w3.org/1999/xlink"  viewBox="0.318 0 1.364 2" fill="#0e9749" x="722" y="684"><svg xmlns="http://www.w3.org/2000/svg" xmlns:xlink="http://www.w3.org/1999/xlink" width="2" height="2" viewBox="0.905 0.685 0.733 1.074"><path paint-order="stroke fill markers" fill-rule="evenodd" d="M1.271.685a.366.366 0 0 0-.366.366v.342a.366.366 0 0 0 .733 0v-.342A.366.366 0 0 0 1.27.685z"/></svg></svg><svg width="2" height="2" xmlns="http://www.w3.org/2000/svg" xmlns:xlink="http://www.w3.org/1999/xlink"  viewBox="0.318 0 1.364 2" fill="#0e9749" x="720" y="684"><svg xmlns="http://www.w3.org/2000/svg" xmlns:xlink="http://www.w3.org/1999/xlink" width="2" height="2" viewBox="0.932 0.685 0.733 1.074"><path paint-order="stroke fill markers" fill-rule="evenodd" d="M1.298.685a.366.366 0 0 0-.366.366v.342a.366.366 0 0 0 .733 0v-.342a.366.366 0 0 0-.367-.366z"/></svg></svg><svg width="2" height="3" xmlns="http://www.w3.org/2000/svg" xmlns:xlink="http://www.w3.org/1999/xlink"  viewBox="0.205 0 1.59 3" fill="#0e9749" x="720" y="688"><svg xmlns="http://www.w3.org/2000/svg" xmlns:xlink="http://www.w3.org/1999/xlink" width="2" height="3" viewBox="0.932 0.651 0.733 1.383"><path paint-order="stroke fill markers" fill-rule="evenodd" d="M1.298.651a.366.366 0 0 0-.366.366v.65a.366.366 0 0 0 .733 0v-.65a.366.366 0 0 0-.367-.366z"/></svg></svg><svg width="2" height="3" xmlns="http://www.w3.org/2000/svg" xmlns:xlink="http://www.w3.org/1999/xlink"  viewBox="0.205 0 1.589 3" fill="#0e9749" x="720" y="690"><svg xmlns="http://www.w3.org/2000/svg" xmlns:xlink="http://www.w3.org/1999/xlink" width="2" height="3" viewBox="0.932 0.788 0.733 1.383"><path paint-order="stroke fill markers" fill-rule="evenodd" d="M1.298.788a.366.366 0 0 0-.366.367v.65a.366.366 0 0 0 .733 0v-.65a.366.366 0 0 0-.367-.367z"/></svg></svg><svg width="2" height="2" xmlns="http://www.w3.org/2000/svg" xmlns:xlink="http://www.w3.org/1999/xlink"  viewBox="0.47 0 1.06 2" fill="#0e9749" x="720" y="686"><svg xmlns="http://www.w3.org/2000/svg" xmlns:xlink="http://www.w3.org/1999/xlink" width="2" height="2" viewBox="0.932 0.514 0.733 1.383"><path paint-order="stroke fill markers" fill-rule="evenodd" d="M1.298.514A.366.366 0 0 0 .932.88v.65a.366.366 0 0 0 .733 0V.88a.366.366 0 0 0-.367-.366z"/></svg></svg><svg width="2" height="2" xmlns="http://www.w3.org/2000/svg" xmlns:xlink="http://www.w3.org/1999/xlink"  viewBox="0.318 0 1.364 2" fill="#0e9749" x="720" y="692"><svg xmlns="http://www.w3.org/2000/svg" width="2" height="2" viewBox="0.932 0.926 0.733 1.074"><path paint-order="stroke fill markers" fill-rule="evenodd" d="M1.298.926a.366.366 0 0 0-.366.366v.342a.366.366 0 0 0 .733 0v-.342a.366.366 0 0 0-.367-.366z"/></svg></svg></svg></svg>