<svg width="33" height="26" xmlns="http://www.w3.org/2000/svg" xmlns:xlink="http://www.w3.org/1999/xlink"  viewBox="611 669 33 26"><svg width="33" height="26" xmlns="http://www.w3.org/2000/svg" xmlns:xlink="http://www.w3.org/1999/xlink"  viewBox="611 669 33 26" x="611" y="669"><svg width="33" height="26" xmlns="http://www.w3.org/2000/svg" xmlns:xlink="http://www.w3.org/1999/xlink"  viewBox="0.256 0 32.488 26" fill="#0e9749" x="611" y="669"><svg xmlns="http://www.w3.org/2000/svg" width="33" height="26" viewBox="1 0 31.238 25"><path paint-order="stroke fill markers" fill-rule="evenodd" d="M31.71 15.974h-.414v-2.349a2.277 2.277 0 0 0-1.598-2.17V2.566A2.57 2.57 0 0 0 27.13 0H6.106A2.57 2.57 0 0 0 3.54 2.566v3.38a.528.528 0 1 0 1.055 0v-3.38c0-.833.678-1.51 1.511-1.51h21.025c.833 0 1.511.677 1.511 1.51v8.787h-8.126a7.685 7.685 0 0 0 2.974-3.184.529.529 0 0 0 0-.474 7.654 7.654 0 0 0-6.871-4.24 7.654 7.654 0 0 0-6.872 4.24.529.529 0 0 0 0 .474c.26.517.58 1.006.95 1.453a.528.528 0 0 0 .813-.674 6.685 6.685 0 0 1-.694-1.017 6.6 6.6 0 0 1 5.803-3.42 6.6 6.6 0 0 1 5.803 3.42 6.6 6.6 0 0 1-5.803 3.422 6.59 6.59 0 0 1-3.743-1.157.528.528 0 0 0-.596.87c.147.102.298.197.451.287H4.595V7.705a.527.527 0 1 0-1.055 0v3.75a2.277 2.277 0 0 0-1.597 2.17v2.349h-.416A.527.527 0 0 0 1 16.5v4.621c0 .292.236.528.527.528h2.261v2.822c0 .292.236.528.528.528h3.35a.528.528 0 0 0 .527-.528V21.65h2.586a.528.528 0 1 0 0-1.055H2.056v-3.566h22.653a.528.528 0 1 0 0-1.055H2.999v-2.349c0-.671.545-1.217 1.216-1.217h24.808c.67 0 1.217.546 1.217 1.217v2.349h-3.815a.528.528 0 1 0 0 1.055h4.758v3.566H12.495a.528.528 0 0 0 0 1.055h12.55v2.822c0 .292.236.528.527.528h3.35a.527.527 0 0 0 .528-.528V21.65h2.26a.528.528 0 0 0 .528-.528v-4.62a.528.528 0 0 0-.528-.528zM4.844 21.65h2.294v2.294H4.844V21.65zm23.55 2.294H26.1V21.65h2.294v2.294z"/></svg></svg></svg></svg>