<svg width="15" height="16" xmlns="http://www.w3.org/2000/svg" xmlns:xlink="http://www.w3.org/1999/xlink"  viewBox="0 0.125 15 15.75" fill="#0e9749"><svg xmlns="http://www.w3.org/2000/svg" width="15" height="16" viewBox="0 0.5 14.286 15"><path paint-order="stroke fill markers" fill-rule="evenodd" d="M0 3.357l4.993 5H0V10.5h7.136l5 5 .9-.893L.893 2.464 0 3.357zm13.214 5h1.071V10.5h-1.07V8.357zm-1.786 0H12.5V10.5h-1.072V8.357zm.607-5.8a2.374 2.374 0 0 0 .715-1.7h-1.072c0 .729-.592 1.321-1.321 1.321V3.25c1.6 0 2.857 1.307 2.857 2.907v1.486h1.071V6.157a3.97 3.97 0 0 0-2.25-3.6zM8.928 5.286h1.093c.75 0 1.407.528 1.407 1.464v.893H12.5V6.507c0-1.286-1.143-2.257-2.479-2.257H8.928c-.728 0-1.321-.7-1.321-1.429 0-.728.593-1.25 1.321-1.25V.5a2.393 2.393 0 0 0 0 4.786zm1.786 5.164V8.357H8.621l2.093 2.093z"/></svg></svg>