<svg width="9" height="8" xmlns="http://www.w3.org/2000/svg" xmlns:xlink="http://www.w3.org/1999/xlink"  viewBox="0.321 0 8.358 8" fill="#fff"><svg xmlns="http://www.w3.org/2000/svg" width="9" height="8" viewBox="0.681 0 7.836 7.5"><path paint-order="stroke fill markers" fill-rule="evenodd" d="M4.178.26L3.222 2.2l-2.14.312a.469.469 0 0 0-.26.8L2.372 4.82l-.366 2.131a.468.468 0 0 0 .68.494l1.913-1.006 1.915 1.006a.469.469 0 0 0 .68-.494l-.366-2.13 1.547-1.51a.469.469 0 0 0-.259-.799L5.975 2.2 5.02.26a.47.47 0 0 0-.84 0z"/></svg></svg>