<svg width="11" height="10" xmlns="http://www.w3.org/2000/svg" xmlns:xlink="http://www.w3.org/1999/xlink"  viewBox="0.276 0 10.448 10" fill="#f5c710"><svg xmlns="http://www.w3.org/2000/svg" width="11" height="10" viewBox="0.164 0 10.448 10"><path paint-order="stroke fill markers" fill-rule="evenodd" d="M4.827.348L3.552 2.933.7 3.35a.625.625 0 0 0-.346 1.067l2.064 2.011L1.93 9.27a.625.625 0 0 0 .906.658l2.553-1.342L7.94 9.927a.625.625 0 0 0 .906-.658l-.488-2.842 2.064-2.011a.625.625 0 0 0-.345-1.067l-2.854-.416L5.948.348a.625.625 0 0 0-1.12 0z"/></svg></svg>