<svg width="16" height="16" xmlns="http://www.w3.org/2000/svg" xmlns:xlink="http://www.w3.org/1999/xlink"  viewBox="851 2889 16 16"><svg width="16" height="16" xmlns="http://www.w3.org/2000/svg" xmlns:xlink="http://www.w3.org/1999/xlink"  fill="#29a9e1" x="851" y="2889"><svg xmlns="http://www.w3.org/2000/svg" xmlns:xlink="http://www.w3.org/1999/xlink" width="16" height="16" viewBox="0.5 0.581 15 15"><path paint-order="stroke fill markers" fill-rule="evenodd" d="M2 .58h12c.83 0 1.5.671 1.5 1.5v12c0 .83-.67 1.5-1.5 1.5H2c-.83 0-1.5-.67-1.5-1.5v-12c0-.829.67-1.5 1.5-1.5z"/></svg></svg><svg width="8" height="8" xmlns="http://www.w3.org/2000/svg" xmlns:xlink="http://www.w3.org/1999/xlink"  viewBox="0 0.749 8 6.502" fill="#fff" x="855" y="2893"><svg xmlns="http://www.w3.org/2000/svg" width="8" height="8" viewBox="0.003 0.833 7.992 6.495"><path paint-order="stroke fill markers" fill-rule="evenodd" d="M.003 6.591a4.641 4.641 0 0 0 2.514.737c3.044 0 4.764-2.571 4.66-4.877.32-.231.599-.52.818-.85-.293.131-.61.22-.94.259a1.64 1.64 0 0 0 .72-.907 3.284 3.284 0 0 1-1.041.398A1.641 1.641 0 0 0 3.94 2.846 4.654 4.654 0 0 1 .56 1.133a1.642 1.642 0 0 0 .508 2.19 1.628 1.628 0 0 1-.743-.206c-.018.76.526 1.47 1.315 1.629a1.64 1.64 0 0 1-.74.028A1.64 1.64 0 0 0 2.43 5.912c-.69.541-1.558.782-2.428.68z"/></svg></svg></svg>