<svg width="21" height="13" xmlns="http://www.w3.org/2000/svg" xmlns:xlink="http://www.w3.org/1999/xlink"  viewBox="0.286 0 20.429 13" fill="#0e9749"><svg xmlns="http://www.w3.org/2000/svg" width="21" height="13" viewBox="1 0 19.643 12.5"><path paint-order="stroke fill markers" fill-rule="evenodd" d="M14.393 5.357a2.667 2.667 0 0 0 2.67-2.678 2.667 2.667 0 0 0-2.67-2.68 2.675 2.675 0 0 0-2.679 2.68 2.675 2.675 0 0 0 2.679 2.678zm-7.143 0a2.667 2.667 0 0 0 2.67-2.678 2.667 2.667 0 0 0-2.67-2.68A2.675 2.675 0 0 0 4.57 2.68 2.675 2.675 0 0 0 7.25 5.357zm0 1.786C5.17 7.143 1 8.187 1 10.268V12.5h12.5v-2.232c0-2.08-4.17-3.125-6.25-3.125zm7.143 0c-.26 0-.554.018-.867.044 1.036.75 1.76 1.76 1.76 3.08V12.5h5.357v-2.232c0-2.08-4.17-3.125-6.25-3.125z"/></svg></svg>