<svg width="16" height="16" xmlns="http://www.w3.org/2000/svg" xmlns:xlink="http://www.w3.org/1999/xlink"  viewBox="874 2912 16 16"><svg width="16" height="16" xmlns="http://www.w3.org/2000/svg" xmlns:xlink="http://www.w3.org/1999/xlink"  fill="#1eb8eb" x="874" y="2912"><svg xmlns="http://www.w3.org/2000/svg" xmlns:xlink="http://www.w3.org/1999/xlink" width="16" height="16" viewBox="0.477 0.5 15 15"><path paint-order="stroke fill markers" fill-rule="evenodd" d="M1.977.5h12c.83 0 1.5.67 1.5 1.5v12c0 .83-.67 1.5-1.5 1.5h-12c-.83 0-1.5-.67-1.5-1.5V2c0-.83.67-1.5 1.5-1.5z"/></svg></svg><svg width="10" height="8" xmlns="http://www.w3.org/2000/svg" xmlns:xlink="http://www.w3.org/1999/xlink"  viewBox="0.378 0 9.244 8" fill="#fff" x="877" y="2916"><svg xmlns="http://www.w3.org/2000/svg" width="10" height="8" viewBox="0.724 0.319 8.507 7.362"><path paint-order="stroke fill markers" fill-rule="evenodd" d="M7.991.32C6.811.284 6.013.949 5.595 2.319c.216-.093.426-.14.63-.14.432 0 .623.244.572.73-.025.294-.216.722-.573 1.285-.356.563-.623.844-.801.844-.23 0-.44-.433-.63-1.3-.065-.255-.18-.906-.345-1.951C4.295.816 3.888.364 3.226.428c-.28.025-.7.28-1.26.764-.409.37-.823.739-1.242 1.107l.4.516c.381-.266.604-.4.667-.4.293 0 .565.458.82 1.373l.687 2.52c.343.915.762 1.373 1.258 1.373.8 0 1.779-.752 2.936-2.256 1.118-1.44 1.697-2.574 1.734-3.402C9.276.913 8.865.347 7.991.32z"/></svg></svg></svg>