<svg width="31" height="34" xmlns="http://www.w3.org/2000/svg" xmlns:xlink="http://www.w3.org/1999/xlink"  viewBox="297 589 31 34"><svg width="13" height="8" xmlns="http://www.w3.org/2000/svg" xmlns:xlink="http://www.w3.org/1999/xlink"  viewBox="308 594 13 8" x="308" y="594"><svg width="13" height="8" xmlns="http://www.w3.org/2000/svg" xmlns:xlink="http://www.w3.org/1999/xlink"  viewBox="0 0.259 13 7.481" fill="#a4fcc4" x="308" y="594"><svg xmlns="http://www.w3.org/2000/svg" xmlns:xlink="http://www.w3.org/1999/xlink" width="13" height="8" viewBox="0.02 0.735 12.472 7.177"><path paint-order="stroke fill markers" fill-rule="evenodd" d="M10.597 7.912l1.895-1.893a1.582 1.582 0 0 1 0-2.238L9.443.735a1.584 1.584 0 0 1-2.24 0L.02 7.912h10.577z"/></svg></svg></svg><svg width="29" height="34" xmlns="http://www.w3.org/2000/svg" xmlns:xlink="http://www.w3.org/1999/xlink"  viewBox="297 589 29 34" x="297" y="589"><svg width="29" height="34" xmlns="http://www.w3.org/2000/svg" xmlns:xlink="http://www.w3.org/1999/xlink"  viewBox="297 589 29 34" x="297" y="589"><svg width="29" height="34" xmlns="http://www.w3.org/2000/svg" xmlns:xlink="http://www.w3.org/1999/xlink"  viewBox="0 0.546 29 32.909" fill="#0e9749" x="297" y="589"><svg xmlns="http://www.w3.org/2000/svg" xmlns:xlink="http://www.w3.org/1999/xlink" width="29" height="34" viewBox="0.295 0.5 28.64 32.5"><path paint-order="stroke fill markers" fill-rule="evenodd" d="M27.665 25.697v5.047a.988.988 0 0 1-.988.986H5.491V13.547h21.186c.545 0 .988.442.988.986v5.047h1.27v-5.047a2.26 2.26 0 0 0-1.825-2.214l1.055-1.055c.365-.364.566-.849.566-1.364 0-.516-.201-1-.566-1.364l-7.477-7.472a1.933 1.933 0 0 0-2.73 0L6.736 12.277H2.553a2.26 2.26 0 0 0-2.258 2.256v16.21A2.26 2.26 0 0 0 2.553 33h24.124a2.26 2.26 0 0 0 2.258-2.256v-5.047h-1.27zm-8.81-23.735a.662.662 0 0 1 .935 0l7.478 7.472c.125.124.193.29.193.466a.653.653 0 0 1-.193.466l-1.913 1.911H8.532L18.856 1.962zM4.223 31.73h-1.67a.988.988 0 0 1-.987-.986v-16.21c0-.545.443-.987.988-.987h1.669V31.73z"/></svg></svg></svg></svg><svg width="12" height="9" xmlns="http://www.w3.org/2000/svg" xmlns:xlink="http://www.w3.org/1999/xlink"  viewBox="0 0.487 12 8.025" fill="#a4fcc4" x="316" y="607"><svg xmlns="http://www.w3.org/2000/svg" xmlns:xlink="http://www.w3.org/1999/xlink" width="12" height="9" viewBox="0.16 0.945 11.044 7.386"><path paint-order="stroke fill markers" fill-rule="evenodd" d="M11.204 8.332h-7.35a3.693 3.693 0 1 1 0-7.387h7.35v7.387z"/></svg></svg><svg width="5" height="5" xmlns="http://www.w3.org/2000/svg" xmlns:xlink="http://www.w3.org/1999/xlink"  viewBox="318 609 5 5" x="318" y="609"><svg width="5" height="5" xmlns="http://www.w3.org/2000/svg" xmlns:xlink="http://www.w3.org/1999/xlink"  viewBox="0 0.001 5 4.998" fill="#0e9749" x="318" y="609"><svg xmlns="http://www.w3.org/2000/svg" width="5" height="5" viewBox="0.167 0.529 4.22 4.218"><path paint-order="stroke fill markers" fill-rule="evenodd" d="M2.277 4.748a2.112 2.112 0 0 1-2.11-2.11c0-1.162.946-2.109 2.11-2.109s2.11.947 2.11 2.11c0 1.163-.946 2.109-2.11 2.109zm0-2.949a.841.841 0 0 0-.84.84.841.841 0 0 0 1.68 0 .841.841 0 0 0-.84-.84z"/></svg></svg></svg></svg>