<svg width="22" height="26" xmlns="http://www.w3.org/2000/svg" xmlns:xlink="http://www.w3.org/1999/xlink"  viewBox="422 669 22 26"><svg width="22" height="26" xmlns="http://www.w3.org/2000/svg" xmlns:xlink="http://www.w3.org/1999/xlink"  viewBox="422 669 22 26" x="422" y="669"><svg width="22" height="26" xmlns="http://www.w3.org/2000/svg" xmlns:xlink="http://www.w3.org/1999/xlink"  viewBox="422 669 22 26" x="422" y="669"><svg width="22" height="26" xmlns="http://www.w3.org/2000/svg" xmlns:xlink="http://www.w3.org/1999/xlink"  viewBox="0.035 0 21.929 26" fill="#0e9749" x="422" y="669"><svg xmlns="http://www.w3.org/2000/svg" xmlns:xlink="http://www.w3.org/1999/xlink" width="22" height="26" viewBox="0 0 21.086 25"><path paint-order="stroke fill markers" fill-rule="evenodd" d="M20.146 0H.94A.936.936 0 0 0 0 .94v23.173c.052.521.47.887.94.887h19.206c.522 0 .94-.418.94-.94V.94a.935.935 0 0 0-.94-.94zm.105 24.113c0 .052-.053.104-.105.104H.94c-.053 0-.157-.052-.157-.156V6.159H20.25v17.954zm.052-18.685H.835V.939C.835.887.887.835.94.835h19.206c.052 0 .157.052.157.157v4.436z"/></svg></svg></svg></svg><svg width="15" height="15" xmlns="http://www.w3.org/2000/svg" xmlns:xlink="http://www.w3.org/1999/xlink"  viewBox="425 677 15 15" x="425" y="677"><svg width="15" height="15" xmlns="http://www.w3.org/2000/svg" xmlns:xlink="http://www.w3.org/1999/xlink"  viewBox="425 677 15 15" x="425" y="677"><svg width="15" height="15" xmlns="http://www.w3.org/2000/svg" xmlns:xlink="http://www.w3.org/1999/xlink"  fill="#0e9749" x="425" y="677"><svg xmlns="http://www.w3.org/2000/svg" xmlns:xlink="http://www.w3.org/1999/xlink" width="15" height="15" viewBox="0.653 0.664 13.779 13.779"><path paint-order="stroke fill markers" fill-rule="evenodd" d="M7.543.664c-3.81 0-6.89 3.08-6.89 6.89 0 3.81 3.08 6.889 6.89 6.889 3.81 0 6.889-3.08 6.889-6.89 0-3.81-3.08-6.89-6.89-6.89zm0 12.996c-3.34 0-6.107-2.714-6.107-6.107 0-3.34 2.714-6.106 6.107-6.106a6.08 6.08 0 0 1 6.106 6.106c0 3.393-2.766 6.107-6.106 6.107z"/></svg></svg></svg></svg><svg width="9" height="9" xmlns="http://www.w3.org/2000/svg" xmlns:xlink="http://www.w3.org/1999/xlink"  viewBox="428 680 9 9" x="428" y="680"><svg width="9" height="9" xmlns="http://www.w3.org/2000/svg" xmlns:xlink="http://www.w3.org/1999/xlink"  viewBox="428 680 9 9" x="428" y="680"><svg width="9" height="9" xmlns="http://www.w3.org/2000/svg" xmlns:xlink="http://www.w3.org/1999/xlink"  fill="#0e9749" x="428" y="680"><svg xmlns="http://www.w3.org/2000/svg" xmlns:xlink="http://www.w3.org/1999/xlink" width="9" height="9" viewBox="0.42 0.43 8.246 8.246"><path paint-order="stroke fill markers" fill-rule="evenodd" d="M4.543.43A4.099 4.099 0 0 0 .42 4.553a4.099 4.099 0 0 0 4.123 4.123 4.099 4.099 0 0 0 4.123-4.123A4.099 4.099 0 0 0 4.543.43zm0 7.463c-1.827 0-3.34-1.513-3.34-3.34s1.513-3.34 3.34-3.34c1.304 0 2.453.73 2.975 1.827a1.677 1.677 0 0 0-1.305 1.617c0 .731.522 1.358 1.2 1.566-.574.992-1.618 1.67-2.87 1.67zm2.505-3.236c0-.47.365-.782.783-.835.052.261.104.47.104.731-.052.366-.104.679-.156.94a.844.844 0 0 1-.731-.836z"/></svg></svg></svg></svg><svg width="8" height="4" xmlns="http://www.w3.org/2000/svg" xmlns:xlink="http://www.w3.org/1999/xlink"  viewBox="434 670 8 4" x="434" y="670"><svg width="8" height="4" xmlns="http://www.w3.org/2000/svg" xmlns:xlink="http://www.w3.org/1999/xlink"  viewBox="434 670 8 4" x="434" y="670"><svg width="8" height="4" xmlns="http://www.w3.org/2000/svg" xmlns:xlink="http://www.w3.org/1999/xlink"  viewBox="0 0.353 8 3.294" fill="#0e9749" x="434" y="670"><svg xmlns="http://www.w3.org/2000/svg" xmlns:xlink="http://www.w3.org/1999/xlink" width="8" height="4" viewBox="0.996 0.722 6.211 2.557"><path paint-order="stroke fill markers" fill-rule="evenodd" d="M6.267.722H1.935a.935.935 0 0 0-.94.94v.678c.053.522.418.94.94.94h4.332c.522 0 .94-.418.94-.94v-.678a.935.935 0 0 0-.94-.94zm.209 1.67c0 .053-.052.157-.157.157H1.987c-.052 0-.156-.052-.156-.157v-.678c0-.052.052-.157.156-.157H6.32c.052 0 .157.053.157.157v.678z"/></svg></svg></svg></svg><svg width="5" height="4" xmlns="http://www.w3.org/2000/svg" xmlns:xlink="http://www.w3.org/1999/xlink"  viewBox="430 670 5 4" x="430" y="670"><svg width="5" height="4" xmlns="http://www.w3.org/2000/svg" xmlns:xlink="http://www.w3.org/1999/xlink"  viewBox="430 670 5 4" x="430" y="670"><svg width="5" height="4" xmlns="http://www.w3.org/2000/svg" xmlns:xlink="http://www.w3.org/1999/xlink"  viewBox="0.5 0 4 4" fill="#0e9749" x="430" y="670"><svg xmlns="http://www.w3.org/2000/svg" width="5" height="4" viewBox="0.873 0.409 3.236 3.236"><path paint-order="stroke fill markers" fill-rule="evenodd" d="M2.49.409c-.887 0-1.617.73-1.617 1.618 0 .887.73 1.618 1.618 1.618.887 0 1.617-.73 1.617-1.618 0-.887-.73-1.618-1.617-1.618zm0 2.505a.824.824 0 0 1-.835-.835c0-.47.366-.835.836-.835s.835.366.835.835c0 .47-.366.835-.835.835z"/></svg></svg></svg></svg></svg>