<svg width="32" height="25" xmlns="http://www.w3.org/2000/svg" xmlns:xlink="http://www.w3.org/1999/xlink"  viewBox="514 669 32 25"><svg width="32" height="25" xmlns="http://www.w3.org/2000/svg" xmlns:xlink="http://www.w3.org/1999/xlink"  viewBox="514 669 32 25" x="514" y="669"><svg width="32" height="25" xmlns="http://www.w3.org/2000/svg" xmlns:xlink="http://www.w3.org/1999/xlink"  viewBox="514 669 32 25" x="514" y="669"><svg width="32" height="25" xmlns="http://www.w3.org/2000/svg" xmlns:xlink="http://www.w3.org/1999/xlink"  viewBox="514 669 32 25" x="514" y="669"><svg width="32" height="11" xmlns="http://www.w3.org/2000/svg" xmlns:xlink="http://www.w3.org/1999/xlink"  viewBox="0.627 0 30.745 11" fill="#fff" x="514" y="669"><svg xmlns="http://www.w3.org/2000/svg" xmlns:xlink="http://www.w3.org/1999/xlink" width="32" height="11" viewBox="0.5 0 30.677 10.975"><path paint-order="stroke fill markers" fill-rule="evenodd" d="M30.7 7.36c.724.9.618 2.304-.29 3.054-.834.689-1.994.537-2.655-.285-3.021-3.755-7.348-5.91-11.87-5.91h-.068c-4.549.022-8.88 2.217-11.884 6.022-.659.835-1.82.985-2.65.312-.925-.75-1.03-2.154-.32-3.054C4.6 2.896 9.909.03 15.798 0h.086c2.851 0 5.606.658 8.187 1.954a.45.45 0 0 1-.404.803A17.195 17.195 0 0 0 15.883.9h-.082C10.392.924 5.24 3.533 1.669 8.057c-.428.54-.332 1.382.179 1.796.443.36 1.032.272 1.38-.169 3.174-4.021 7.761-6.34 12.584-6.363h.073c4.795 0 9.377 2.276 12.57 6.245.354.438.944.518 1.38.157.513-.423.595-1.265.165-1.8a19.583 19.583 0 0 0-4.56-4.146.45.45 0 0 1 .49-.753A20.47 20.47 0 0 1 30.7 7.36z"/></svg></svg><svg width="22" height="9" xmlns="http://www.w3.org/2000/svg" xmlns:xlink="http://www.w3.org/1999/xlink"  viewBox="0 0.155 22 8.691" fill="#fff" x="519" y="675"><svg xmlns="http://www.w3.org/2000/svg" xmlns:xlink="http://www.w3.org/1999/xlink" width="22" height="9" viewBox="0.358 0.642 20.959 8.279"><path paint-order="stroke fill markers" fill-rule="evenodd" d="M20.782 5.282c.8.91.688 2.37-.23 3.128-.794.656-1.917.553-2.615-.24-1.88-2.134-4.387-3.308-7.065-3.308h-.043c-2.694.013-5.207 1.211-7.077 3.375-.69.799-1.812.913-2.612.265C.212 7.75.09 6.291.88 5.374 3.403 2.448 6.93.661 10.81.642c3.903-.017 7.44 1.756 9.973 4.64zm-.803 2.436c.53-.438.592-1.314.127-1.844-2.454-2.796-5.733-4.333-9.236-4.333h-.056c-3.525.017-6.811 1.586-9.252 4.42a1.317 1.317 0 0 0-.3.975 1.257 1.257 0 0 0 .443.867c.422.341.996.277 1.367-.153 2.042-2.364 4.795-3.673 7.753-3.687h.047c2.94 0 5.686 1.282 7.74 3.614.375.426.95.485 1.367.141z"/></svg></svg><svg width="12" height="6" xmlns="http://www.w3.org/2000/svg" xmlns:xlink="http://www.w3.org/1999/xlink"  viewBox="0.063 0 11.874 6" fill="#fff" x="524" y="682"><svg xmlns="http://www.w3.org/2000/svg" xmlns:xlink="http://www.w3.org/1999/xlink" width="12" height="6" viewBox="0.267 0.284 11.142 5.63"><path paint-order="stroke fill markers" fill-rule="evenodd" d="M10.698 2.149c.452.396.71.987.71 1.62 0 .665-.28 1.278-.767 1.681-.737.609-1.734.55-2.42-.044a3.686 3.686 0 0 0-1.349-.751.45.45 0 0 1 .26-.86c.612.185 1.177.499 1.676.931.37.32.877.348 1.26.032.578-.477.59-1.449.036-1.934C8.881 1.75 7.411 1.183 5.855 1.183h-.029c-1.568.007-3.041.589-4.263 1.681-.558.498-.517 1.471.053 1.933.384.311.89.283 1.26-.042a4.603 4.603 0 0 1 1.95-1.027.45.45 0 0 1 .21.874 3.703 3.703 0 0 0-1.566.827c-.688.607-1.684.662-2.42.066C.035 4.672.009 3.05.964 2.195 2.332.97 4.057.292 5.822.284h.033c1.752 0 3.472.661 4.843 1.864z"/></svg></svg><svg width="6" height="5" xmlns="http://www.w3.org/2000/svg" xmlns:xlink="http://www.w3.org/1999/xlink"  viewBox="0.508 0 4.983 5" fill="#fff" x="527" y="689"><svg xmlns="http://www.w3.org/2000/svg" width="6" height="5" viewBox="0.515 0.34 4.645 4.66"><path paint-order="stroke fill markers" fill-rule="evenodd" d="M2.838.34A2.329 2.329 0 0 1 5.16 2.67 2.328 2.328 0 0 1 2.838 5 2.329 2.329 0 0 1 .515 2.67 2.33 2.33 0 0 1 2.838.34zM4.26 2.67a1.43 1.43 0 0 0-1.423-1.432A1.43 1.43 0 0 0 1.414 2.67c0 .79.639 1.431 1.424 1.431.785 0 1.423-.641 1.423-1.431z"/></svg></svg></svg></svg></svg></svg>