<svg width="16" height="16" xmlns="http://www.w3.org/2000/svg" xmlns:xlink="http://www.w3.org/1999/xlink"  viewBox="851 2912 16 16"><svg width="16" height="16" xmlns="http://www.w3.org/2000/svg" xmlns:xlink="http://www.w3.org/1999/xlink"  fill="#c3271a" x="851" y="2912"><svg xmlns="http://www.w3.org/2000/svg" xmlns:xlink="http://www.w3.org/1999/xlink" width="16" height="16" viewBox="0.5 0.5 15 15"><path paint-order="stroke fill markers" fill-rule="evenodd" d="M2 .5h12c.83 0 1.5.67 1.5 1.5v12c0 .83-.67 1.5-1.5 1.5H2c-.83 0-1.5-.67-1.5-1.5V2C.5 1.17 1.17.5 2 .5z"/></svg></svg><svg width="14" height="10" xmlns="http://www.w3.org/2000/svg" xmlns:xlink="http://www.w3.org/1999/xlink"  viewBox="852 2915 14 10" x="852" y="2915"><svg width="14" height="10" xmlns="http://www.w3.org/2000/svg" xmlns:xlink="http://www.w3.org/1999/xlink"  viewBox="0 0.068 14 9.863" fill="#fff" x="852" y="2915"><svg xmlns="http://www.w3.org/2000/svg" xmlns:xlink="http://www.w3.org/1999/xlink" width="14" height="10" viewBox="0.997 0.771 12.005 8.458"><path paint-order="stroke fill markers" fill-rule="evenodd" d="M12.751 2.092a1.508 1.508 0 0 0-1.061-1.069C10.754.771 7 .771 7 .771s-3.754 0-4.69.252a1.507 1.507 0 0 0-1.062 1.069C.998 3.034.998 5 .998 5s0 1.966.25 2.908c.138.52.545.93 1.061 1.069.937.252 4.69.252 4.69.252s3.755 0 4.691-.252a1.508 1.508 0 0 0 1.061-1.069c.251-.942.251-2.908.251-2.908s0-1.966-.25-2.908z"/></svg></svg><svg width="4" height="4" xmlns="http://www.w3.org/2000/svg" xmlns:xlink="http://www.w3.org/1999/xlink"  viewBox="0.242 0 3.515 4" fill="#c3271a" x="857" y="2918"><svg xmlns="http://www.w3.org/2000/svg" width="4" height="4" viewBox="0.772 0.215 3.138 3.57"><path paint-order="stroke fill markers" fill-rule="evenodd" d="M.772 3.785V.215L3.909 2 .772 3.785z"/></svg></svg></svg></svg>